<?xml version="1.0" encoding="UTF-8"?>
<svg version="1.1" xmlns="http://www.w3.org/2000/svg" width="2500" height="2500">
<path d="M0 0 C2.27460785 0.5033784 2.27460785 0.5033784 4.21850586 -0.24755859 C6.90294824 -0.77453125 7.88587477 -0.21061038 10.26953125 1.078125 C11.40539673 1.68261475 11.40539673 1.68261475 12.56420898 2.29931641 C13.37059814 2.74581543 14.1769873 3.19231445 15.0078125 3.65234375 C15.84707275 4.10657715 16.68633301 4.56081055 17.55102539 5.02880859 C50.0077431 22.72914473 79.4691153 43.22062606 101.67236328 73.12744141 C103.27989348 75.28558047 104.90420086 77.42983966 106.53515625 79.5703125 C112.42520487 87.31635676 118.03055919 95.16736517 123.3203125 103.33984375 C124.29361592 104.82334655 125.2676322 106.30638179 126.2421875 107.7890625 C133.51004346 118.87295798 140.58093446 130.06785038 147.50146484 141.37158203 C149.13532774 144.03795856 150.77497668 146.70070384 152.41578674 149.36280823 C161.50318876 164.12041846 170.23784035 179.00154712 178.3203125 194.33984375 C179.08384033 195.78447998 179.08384033 195.78447998 179.86279297 197.25830078 C182.36742835 202.00494507 184.86094517 206.75735923 187.3359375 211.51953125 C187.82819824 212.41961914 188.32045898 213.31970703 188.82763672 214.24707031 C189.99716197 216.67028686 190.7964464 218.7847488 191.56689453 221.33105469 C193.44106798 226.88303947 195.40785818 231.71266625 200.71923828 234.68011475 C208.11839106 237.65237553 215.917347 239.197093 223.6953125 240.83984375 C227.14125591 241.63079575 230.58243986 242.44058307 234.0239563 243.25054932 C236.32755551 243.79090403 238.63282362 244.32419106 240.93966675 244.8505249 C253.27304231 247.69374648 265.29335294 251.41634776 277.3203125 255.33984375 C278.22742981 255.63552246 279.13454712 255.93120117 280.06915283 256.23583984 C285.8775529 258.14004676 291.66529971 260.10132066 297.4453125 262.08984375 C298.30951813 262.38631805 299.17372375 262.68279236 300.06411743 262.98825073 C327.29870998 272.34376834 354.1036307 282.40060943 380.3203125 294.33984375 C381.30016113 294.78569824 382.28000977 295.23155273 383.28955078 295.69091797 C413.19662769 309.48561686 454.28917036 339.23376674 468.3203125 370.33984375 C468.9803125 370.33984375 469.6403125 370.33984375 470.3203125 370.33984375 C470.27390625 371.21769531 470.2275 372.09554688 470.1796875 373 C470.32934861 376.55445127 471.06592099 378.58277743 472.5703125 381.77734375 C488.45262369 418.4011435 478.44968377 458.15217574 464.4453125 493.83984375 C458.30187491 508.90730771 449.7155342 522.12802341 440.3203125 535.33984375 C439.46302506 536.55953289 438.6062412 537.77957616 437.75 539 C425.06807946 557.00110298 411.14154767 574.01218724 396.75683594 590.66943359 C394.42730233 593.37824885 392.1240643 596.10910347 389.8203125 598.83984375 C381.12585711 609.12995786 372.42735336 619.41023146 363.3203125 629.33984375 C362.86591797 629.83935547 362.41152344 630.33886719 361.94335938 630.85351562 C351.26453239 642.57349306 340.0275438 653.73289465 328.77709961 664.89892578 C327.96635986 665.70442871 327.15562012 666.50993164 326.3203125 667.33984375 C325.41224854 668.16468262 324.50418457 668.98952148 323.56860352 669.83935547 C320.65764506 673.0768445 320.32499883 675.51953459 320.31394958 679.81138611 C320.36946487 680.68050125 320.42498016 681.54961639 320.48217773 682.44506836 C320.54229538 683.44468094 320.60241302 684.44429352 320.66435242 685.47419739 C320.73515518 686.55263412 320.80595795 687.63107086 320.87890625 688.7421875 C321.01971604 691.08086126 321.15999379 693.41956709 321.29980469 695.75830078 C321.37501343 696.98470276 321.45022217 698.21110474 321.52770996 699.47467041 C322.92961873 722.64260731 323.77492721 745.66427165 323.36065674 768.86761475 C323.31761804 771.50495586 323.28625839 774.14225264 323.25732422 776.77978516 C322.96767045 802.71911607 321.982114 828.50122708 319.51239014 854.32995605 C319.33276687 856.20952206 319.15861109 858.08960833 318.98486328 859.96972656 C315.13909367 900.20512818 298.94477096 936.07410398 276.51269531 969.39233398 C275.16546155 971.42827285 275.16546155 971.42827285 274.3203125 974.33984375 C272.63626305 975.04714452 270.94965204 975.74902939 269.25 976.41796875 C266.64136138 977.66420096 264.71142782 979.55147744 262.57421875 981.46875 C254.03820431 988.55497343 244.73906049 994.02266993 234.44140625 998.0859375 C231.30184511 999.28184483 231.30184511 999.28184483 228.39453125 1000.90234375 C224.87749057 1002.54690661 221.49802059 1003.30509412 217.6953125 1003.90234375 C216.93387939 1004.02456299 216.17244629 1004.14678223 215.38793945 1004.27270508 C155.17655563 1013.25164736 102.53417851 998.1438999 47.3203125 975.33984375 C46.51346008 975.00710449 45.70660767 974.67436523 44.87530518 974.33154297 C38.35137431 971.63938268 31.83404385 968.9315821 25.3203125 966.21484375 C24.42359833 965.84115662 23.52688416 965.46746948 22.60299683 965.0824585 C1.75485384 956.38000507 -18.63301581 947.01484545 -38.8046875 936.83984375 C-40.81621464 935.82904568 -42.82793262 934.81862729 -44.83984375 933.80859375 C-49.19609843 931.62077673 -53.55056369 929.42944847 -57.90335083 927.23474121 C-60.72822856 925.56091493 -60.72822856 925.56091493 -63.82983398 926.02978516 C-64.72774658 926.41312012 -65.62565918 926.79645508 -66.55078125 927.19140625 C-67.57985596 927.62340332 -68.60893066 928.05540039 -69.66918945 928.50048828 C-70.80702881 928.98372559 -71.94486816 929.46696289 -73.1171875 929.96484375 C-75.61828959 930.9999781 -78.12035344 932.03212727 -80.625 933.05859375 C-81.61319481 933.4638176 -81.61319481 933.4638176 -82.62135315 933.87722778 C-113.67686951 946.57302517 -145.58267275 956.63382542 -177.6796875 966.33984375 C-178.57679443 966.61137268 -179.47390137 966.88290161 -180.39819336 967.16265869 C-202.60373936 973.85920312 -225.02743307 979.03022265 -247.7578125 983.625 C-248.54265518 983.78488907 -249.32749786 983.94477814 -250.13612366 984.10951233 C-281.96111421 990.43857404 -315.12052468 985.26066425 -346.28271484 977.890625 C-348.48853202 977.38376784 -350.69631219 976.92729685 -352.91796875 976.49609375 C-354.09746094 976.25890625 -355.27695312 976.02171875 -356.4921875 975.77734375 C-357.46800781 975.59042969 -358.44382812 975.40351563 -359.44921875 975.2109375 C-362.29553283 974.09932972 -362.4451414 973.04360174 -363.6796875 970.33984375 C-365.63128491 968.95013937 -365.63128491 968.95013937 -367.9921875 967.77734375 C-377.95243592 962.06315499 -386.32650842 954.2119737 -393.77734375 945.53125 C-396.25933772 942.67211526 -398.90393791 940.04384772 -401.70703125 937.5 C-404.13331584 934.84309826 -405.67734667 931.98258369 -407.2421875 928.77734375 C-407.57589355 928.09969971 -407.90959961 927.42205566 -408.25341797 926.72387695 C-422.81788578 896.43123442 -433.68091417 865.08843596 -433.91796875 831.2421875 C-433.92762665 830.0790654 -433.93728455 828.9159433 -433.94723511 827.71757507 C-433.97219403 823.90413195 -433.98467906 820.09086011 -433.9921875 816.27734375 C-433.99661362 814.30673981 -433.99661362 814.30673981 -434.00112915 812.29632568 C-434.03202139 784.47259893 -432.32490392 756.85244266 -429.91992188 729.13391113 C-429.70831724 726.67282454 -429.50532449 724.21133522 -429.30859375 721.74902344 C-427.50018915 699.36164427 -424.0713136 677.16006078 -420.78361511 654.95132446 C-420.52751514 653.21478578 -420.27515674 651.47768948 -420.02726746 649.73995972 C-419.7988358 648.16258892 -419.55664333 646.58713841 -419.29951477 645.01419067 C-418.5490501 640.53525815 -418.5490501 640.53525815 -420.48828125 636.50390625 C-421.35582031 635.66601562 -422.22335937 634.828125 -423.1171875 633.96484375 C-424.05971883 633.01542425 -424.99979244 632.06355907 -425.9375 631.109375 C-426.84242188 630.19542969 -427.74734375 629.28148437 -428.6796875 628.33984375 C-429.97779693 626.79992962 -431.25033307 625.23797334 -432.4921875 623.65234375 C-435.35968267 620.00175753 -438.26746697 616.39067392 -441.21044922 612.80102539 C-452.2155812 599.35841722 -462.71039832 585.56659342 -472.6796875 571.33984375 C-473.20675293 570.58832031 -473.73381836 569.83679687 -474.27685547 569.0625 C-476.64368008 565.68614534 -479.00918643 562.30889588 -481.36914062 558.92773438 C-484.13304631 554.96862623 -486.90335933 551.01534757 -489.71484375 547.08984375 C-502.88539772 528.6846125 -514.93906322 509.67657386 -526.14746094 490.01660156 C-527.53000571 487.60133373 -528.93194577 485.19901773 -530.34375 482.80078125 C-535.33352349 474.25991008 -539.35709721 465.66483096 -542.6796875 456.33984375 C-543.04441162 455.36313721 -543.04441162 455.36313721 -543.41650391 454.36669922 C-553.43331666 427.29722277 -555.76553856 397.90942448 -557.6796875 369.33984375 C-556.6896875 368.67984375 -555.6996875 368.01984375 -554.6796875 367.33984375 C-553.97370764 364.96763176 -553.42285733 362.69367558 -552.9296875 360.27734375 C-550.14868522 348.11202073 -545.93832881 336.31422491 -538.16015625 326.41796875 C-536.58068842 324.40003793 -536.58068842 324.40003793 -535.83496094 321.98046875 C-534.52599157 318.98853877 -533.02309569 317.31035406 -530.71484375 315.01171875 C-529.92029785 314.21628662 -529.12575195 313.42085449 -528.30712891 312.60131836 C-527.03748291 311.35813843 -527.03748291 311.35813843 -525.7421875 310.08984375 C-524.87770996 309.23592041 -524.01323242 308.38199707 -523.12255859 307.50219727 C-517.22504929 301.72693046 -511.25874941 296.33119841 -504.6796875 291.33984375 C-503.16568359 290.13521484 -503.16568359 290.13521484 -501.62109375 288.90625 C-480.90802713 272.47962 -458.66048595 261.75562236 -433.6796875 253.33984375 C-432.63447937 252.9866658 -431.58927124 252.63348785 -430.51239014 252.26960754 C-412.50361927 246.22522142 -394.39305552 241.22985266 -375.9543457 236.71289062 C-373.26348228 236.05096353 -370.57528957 235.37854419 -367.88704491 234.70607471 C-341.28069016 228.05529943 -314.58143262 221.88019252 -287.51464844 217.39379883 C-284.45853438 216.88637903 -281.40505793 216.36472478 -278.3515625 215.84179688 C-276.37513553 215.50831035 -274.39857824 215.17559506 -272.421875 214.84375 C-271.52516083 214.69071915 -270.62844666 214.53768829 -269.70455933 214.38002014 C-265.30964049 213.65785994 -261.1526388 213.16401301 -256.6796875 213.33984375 C-256.32197266 212.32736572 -256.32197266 212.32736572 -255.95703125 211.29443359 C-254.38594399 207.66039344 -252.36029268 204.39751984 -250.2421875 201.06640625 C-249.58174438 200.01944077 -249.58174438 200.01944077 -248.90795898 198.95132446 C-244.39814613 191.83500917 -239.75820978 184.8059249 -235.07519531 177.80273438 C-233.67686762 175.71062478 -232.2835395 173.61524774 -230.890625 171.51953125 C-222.99357843 159.66780888 -214.793952 148.07464808 -206.20703125 136.7109375 C-203.69729523 133.3785375 -201.23617436 130.01126878 -198.77246094 126.64477539 C-184.42130804 107.05659317 -169.63275757 87.68034605 -153.0625 69.90234375 C-151.038507 67.72572177 -149.06385781 65.52280532 -147.1171875 63.27734375 C-144.34454536 60.09344847 -141.55613233 56.9248565 -138.7421875 53.77734375 C-137.97003906 52.90980469 -137.19789063 52.04226563 -136.40234375 51.1484375 C-122.7549354 37.07026446 -106.02541368 26.2552079 -88.6796875 17.33984375 C-87.99277832 16.98196777 -87.30586914 16.6240918 -86.59814453 16.25537109 C-76.81840958 11.1723439 -66.83307959 6.62348694 -56.6796875 2.33984375 C-55.83148437 1.96859375 -54.98328125 1.59734375 -54.109375 1.21484375 C-38.29606228 -4.4799827 -16.17054771 -3.44581309 0 0 Z " fill="#FFD471" transform="translate(809.6796875,1342.66015625)"/>
<path d="M0 0 C64.86064756 -1.35994019 124.58068559 19.97663904 183.59716797 45.078125 C184.26709778 45.36300781 184.93702759 45.64789063 185.6272583 45.94140625 C193.75907165 49.40533974 201.86178609 52.9335306 209.95556641 56.48535156 C213.66708568 58.1087058 217.38452604 59.71758306 221.10498047 61.3203125 C227.39798335 64.03134187 233.68365131 66.75879369 239.96484375 69.49707031 C242.30532612 70.5158204 244.64733759 71.53106825 246.99121094 72.54199219 C263.67633395 79.74988682 279.97071548 87.63175544 296.22216797 95.765625 C297.19259033 96.25117859 298.1630127 96.73673218 299.1628418 97.23699951 C331.41364992 113.39997441 331.41364992 113.39997441 345.76953125 121.76855469 C353.51038289 126.2438649 360.43395525 130.00828344 369.59716797 130.078125 C370.36029297 130.11550781 371.12341797 130.15289062 371.90966797 130.19140625 C377.54783937 130.06759505 382.46608901 128.07804312 387.63623047 126 C389.25286584 125.36107448 390.86990677 124.72317437 392.48730469 124.08618164 C393.32710876 123.75482208 394.16691284 123.42346252 395.03216553 123.08206177 C439.7267163 105.58870499 485.30625528 91.03307518 531.40966797 77.765625 C532.11909672 77.56141182 532.82852547 77.35719864 533.55945206 77.14679718 C568.31736293 67.14976077 603.12451285 57.85917815 638.65966797 51.015625 C639.60651459 50.83271912 640.55336121 50.64981323 641.52890015 50.46136475 C660.96429766 46.74344443 680.44677576 43.46462557 700.28466797 43.703125 C700.99840576 43.70777771 701.71214355 43.71243042 702.44750977 43.71722412 C751.73086882 44.08745959 813.02080772 51.36505939 850.34326172 86.03515625 C852.59459441 88.12748999 852.59459441 88.12748999 855.14013672 90.0546875 C874.59532046 106.07660352 882.80105988 135.49639233 891.59716797 158.078125 C891.92458984 158.90634766 892.25201172 159.73457031 892.58935547 160.58789062 C907.66694253 198.8295484 913.02813494 236.40053985 912.84716797 277.265625 C912.84201675 279.18021515 912.84201675 279.18021515 912.83676147 281.13348389 C912.7716726 301.85241988 912.29304799 322.42922439 910.59716797 343.078125 C910.51704468 344.05855774 910.43692139 345.03899048 910.35437012 346.0491333 C908.99446629 362.57921715 907.48869981 379.09468155 905.92462158 395.60656738 C905.6096892 398.94537899 905.29965814 402.28460718 904.99121094 405.62402344 C901.1894532 446.62370447 895.06506334 487.11556943 888.17407227 527.69946289 C888.00935928 528.67134552 887.8446463 529.64322815 887.67494202 530.64456177 C887.36877771 532.44772231 887.06107445 534.25062259 886.75144958 536.05319214 C884.70557521 548.09094077 883.38863704 559.40170621 890.59716797 570.078125 C892.96207973 573.07541244 895.41156678 575.99050786 897.89794922 578.88671875 C900.95668791 582.46381359 903.79278798 586.19946846 906.63916016 589.94677734 C909.99247411 594.33814492 913.46710181 598.61982873 916.97216797 602.890625 C922.42768375 609.55161568 927.63538948 616.36753777 932.76513672 623.28125 C935.32736375 626.73223599 937.95397651 630.12626944 940.59716797 633.515625 C949.9259281 645.60569813 958.48357593 658.28036532 967.09716797 670.88476562 C968.67772745 673.19592227 970.26242674 675.50420907 971.84716797 677.8125 C982.85131267 693.86848453 993.65270605 710.05939029 1004.40716553 726.2833252 C1005.47306389 727.89094725 1006.54016386 729.49777245 1007.60742188 731.10449219 C1046.0158427 789.03159704 1075.13674274 845.48590525 1084.34716797 914.828125 C1084.4543515 915.63359772 1084.56153503 916.43907043 1084.67196655 917.26895142 C1089.77719501 956.02837673 1088.92176765 993.50914179 1064.17529297 1025.921875 C1058.75138067 1032.72028404 1052.36631009 1038.54952763 1045.76904297 1044.18359375 C1043.62696628 1046.05213187 1041.55005891 1047.98110253 1039.47583008 1049.92431641 C1033.04193899 1055.93095283 1026.29509894 1061.40882885 1019.31005859 1066.75927734 C1017.69243929 1068.00477043 1016.08960723 1069.26940101 1014.48779297 1070.53515625 C1001.9309977 1080.39893325 988.81153266 1089.41761323 974.97216797 1097.390625 C974.18712891 1097.84550293 973.40208984 1098.30038086 972.59326172 1098.76904297 C958.37256764 1106.79267202 943.62163346 1112.79785628 928.15966797 1117.953125 C927.27288361 1118.25182495 926.38609924 1118.5505249 925.47244263 1118.85827637 C883.73423724 1132.91164441 841.25745479 1143.26498302 798.28466797 1152.765625 C797.21972988 1153.00147623 797.21972988 1153.00147623 796.13327789 1153.24209213 C785.63115625 1155.56763837 775.12042644 1157.85010975 764.59716797 1160.078125 C763.89255432 1160.22751652 763.18794067 1160.37690804 762.4619751 1160.53082657 C739.93612867 1165.29605448 717.3493561 1169.17171129 694.57519531 1172.54138184 C690.5907103 1173.13277069 686.60767938 1173.73379834 682.62451172 1174.33398438 C677.454656 1175.11226648 672.2844759 1175.88821243 667.11313438 1176.65656567 C665.17328362 1176.945492 663.23388277 1177.23743396 661.29449463 1177.52944946 C658.83195739 1177.89488483 656.36749849 1178.24759978 653.90130615 1178.5874939 C652.75212708 1178.75028839 651.602948 1178.91308289 650.41894531 1179.08081055 C648.90873306 1179.28712349 648.90873306 1179.28712349 647.36801147 1179.49760437 C640.18550096 1181.00241528 632.84116967 1185.82171693 628.38423157 1191.66960144 C627.22178557 1193.47720343 626.12415015 1195.31091282 625.04248047 1197.16796875 C624.17467117 1198.60449349 623.30375553 1200.03914504 622.43017578 1201.47216797 C621.97227661 1202.22439636 621.51437744 1202.97662476 621.04260254 1203.75164795 C618.55190372 1207.76051404 615.9168322 1211.67045684 613.27685547 1215.58203125 C612.72908951 1216.39434708 612.18132355 1217.2066629 611.61695862 1218.04359436 C609.9047483 1220.5777908 608.18886322 1223.10946493 606.47216797 1225.640625 C605.8783432 1226.51764069 605.28451843 1227.39465637 604.67269897 1228.29824829 C600.65586531 1234.23056494 596.62965071 1240.15643673 592.59716797 1246.078125 C592.15685242 1246.72527466 591.71653687 1247.37242432 591.26287842 1248.03918457 C582.01313663 1261.62781152 572.38839235 1274.85575231 562.32177734 1287.85107422 C560.82966314 1289.77789553 559.34383928 1291.70920031 557.86279297 1293.64453125 C551.43025908 1302.04256161 544.92414041 1310.38362988 538.42480469 1318.72998047 C536.60730199 1321.06510483 534.79141009 1323.4014721 532.97607422 1325.73828125 C530.05941464 1329.49275975 527.13984002 1333.24495342 524.21826172 1336.99560547 C523.17562336 1338.33501891 522.13388239 1339.67513165 521.09326172 1341.01611328 C515.29722208 1348.48423929 509.36326782 1355.79720924 503.22216797 1362.984375 C500.75800833 1365.8736382 498.36055797 1368.81330958 495.97216797 1371.765625 C492.41890636 1376.13106069 488.73067702 1380.34204517 484.93310547 1384.49609375 C483.01667854 1386.6144185 481.13465749 1388.75409565 479.26123047 1390.91015625 C475.79238531 1394.88323178 472.21767944 1398.74340807 468.59716797 1402.578125 C467.28981707 1403.96739218 465.98252733 1405.35671691 464.67529297 1406.74609375 C464.00820312 1407.45427246 463.34111328 1408.16245117 462.65380859 1408.89208984 C460.56375556 1411.11363957 458.47817074 1413.33929762 456.39404297 1415.56640625 C455.71599609 1416.29085938 455.03794922 1417.0153125 454.33935547 1417.76171875 C453.0370301 1419.15341938 451.73493695 1420.54533736 450.43310547 1421.9375 C449.84271484 1422.56785156 449.25232422 1423.19820312 448.64404297 1423.84765625 C447.86818848 1424.67680542 447.86818848 1424.67680542 447.07666016 1425.52270508 C446.58842773 1426.03599365 446.10019531 1426.54928223 445.59716797 1427.078125 C445.08057617 1427.63975342 444.56398438 1428.20138184 444.03173828 1428.7800293 C442.59716797 1430.078125 442.59716797 1430.078125 440.59716797 1430.078125 C440.26716797 1431.068125 439.93716797 1432.058125 439.59716797 1433.078125 C427.04191356 1445.17925318 411.48356355 1455.49217911 396.35595703 1464.07666016 C394.60122053 1465.07581745 392.86003809 1466.09556347 391.12060547 1467.12109375 C376.46378196 1475.71438109 361.17717531 1482.71003419 345.59716797 1489.4609375 C342.05449787 1490.99616844 338.53070789 1492.55674206 335.03466797 1494.1953125 C322.12010855 1500.20785448 308.89038837 1503.60781875 294.59716797 1504.078125 C293.76830078 1504.11808594 292.93943359 1504.15804688 292.08544922 1504.19921875 C267.54482402 1504.83810179 245.95339546 1498.48974444 225.20263672 1485.66015625 C222.14652198 1483.80449438 219.03077517 1482.07217035 215.90966797 1480.328125 C208.20420795 1475.96392447 200.88953031 1471.0951508 193.59716797 1466.078125 C192.79375977 1465.52785645 191.99035156 1464.97758789 191.16259766 1464.41064453 C177.83164079 1455.26110545 165.356535 1445.78881833 153.50732422 1434.765625 C150.86462317 1432.32511719 148.17728648 1429.94880789 145.47216797 1427.578125 C135.06248962 1418.17957782 126.80790641 1407.36820586 118.59716797 1396.078125 C118.05624512 1395.33546387 117.51532227 1394.59280273 116.95800781 1393.82763672 C113.6588485 1389.29141385 110.3785278 1384.74196768 107.109375 1380.18408203 C105.71217102 1378.23828262 104.30987771 1376.29628305 102.90576172 1374.35546875 C80.38414814 1343.15129487 60.97076185 1309.76290109 41.61523438 1276.53955078 C39.65973366 1273.18362056 37.69732612 1269.83176119 35.73388672 1266.48046875 C25.92494199 1249.72909058 16.43360715 1232.91563363 7.50732422 1215.67578125 C5.40934111 1211.62669434 3.27549883 1207.59962529 1.11303711 1203.5847168 C-2.73538949 1196.42369841 -6.33949519 1189.16532854 -9.84033203 1181.828125 C-10.30157471 1180.86189209 -10.76281738 1179.89565918 -11.23803711 1178.90014648 C-13.55576424 1174.02420015 -15.83961241 1169.13526333 -18.07861328 1164.22265625 C-18.51181885 1163.28389648 -18.94502441 1162.34513672 -19.39135742 1161.37792969 C-20.20290059 1159.61694228 -21.00377735 1157.85097922 -21.79125977 1156.07910156 C-26.22857117 1146.49520092 -32.60003991 1139.30008932 -42.40283203 1135.078125 C-45.14165797 1134.21813402 -47.91348696 1133.52448423 -50.69970703 1132.8359375 C-52.40811 1132.39941142 -54.11609789 1131.96125859 -55.82373047 1131.52172852 C-56.72990112 1131.28906281 -57.63607178 1131.05639709 -58.56970215 1130.81668091 C-109.88843967 1117.43862965 -159.76200349 1100.54743464 -209.47009277 1082.16137695 C-212.11597296 1081.18408077 -214.763263 1080.21079169 -217.41162109 1079.24023438 C-245.23314775 1069.04385844 -272.57043327 1058.04275541 -299.34033203 1045.328125 C-300.56768066 1044.74609818 -300.56768066 1044.74609818 -301.81982422 1044.15231323 C-310.80451324 1039.87862366 -319.71333891 1035.4675517 -328.53955078 1030.875 C-329.29783676 1030.48411194 -330.05612274 1030.09322388 -330.83738708 1029.69049072 C-339.23804271 1025.27074561 -346.81979255 1019.75723116 -354.40283203 1014.078125 C-354.99821777 1013.63968262 -355.59360352 1013.20124023 -356.20703125 1012.74951172 C-363.49008722 1007.38576492 -370.26863223 1001.62665805 -376.84423828 995.42578125 C-379.28836008 993.09184629 -379.28836008 993.09184629 -381.74267578 991.38671875 C-382.29052734 990.95488281 -382.83837891 990.52304688 -383.40283203 990.078125 C-383.40283203 989.418125 -383.40283203 988.758125 -383.40283203 988.078125 C-383.94423828 987.8615625 -384.48564453 987.645 -385.04345703 987.421875 C-388.21928547 985.61312503 -390.61011285 983.16088701 -393.15283203 980.578125 C-393.65943359 980.07925781 -394.16603516 979.58039062 -394.68798828 979.06640625 C-398.40283203 975.33153639 -398.40283203 975.33153639 -398.40283203 973.078125 C-399.39283203 972.748125 -400.38283203 972.418125 -401.40283203 972.078125 C-402.87548828 970.6171875 -402.87548828 970.6171875 -404.46533203 968.703125 C-407.33143257 965.31810942 -410.27020455 962.02583706 -413.27783203 958.765625 C-417.4851682 954.15545877 -421.47893352 949.41536798 -425.38330078 944.546875 C-427.01489413 942.55235469 -428.69675221 940.69681312 -430.46533203 938.828125 C-439.26867993 928.51284477 -443.79938717 914.92318673 -447.40283203 902.078125 C-447.61456055 901.3361084 -447.82628906 900.5940918 -448.04443359 899.82958984 C-453.75477563 879.07417074 -452.49480836 858.60179158 -447.13818359 837.9375 C-446.40482838 835.0858877 -445.72210267 832.22628345 -445.05126953 829.359375 C-439.5527533 806.15836628 -433.11358294 782.8973978 -423.40283203 761.078125 C-423.0201416 760.21396973 -422.63745117 759.34981445 -422.24316406 758.45947266 C-414.75316379 741.73150348 -405.57802824 726.73649733 -394.78173828 711.97216797 C-393.28991039 709.92301768 -391.81405727 707.86298593 -390.34033203 705.80078125 C-375.99646262 685.75812541 -360.81347241 666.45048061 -344.80175781 647.71533203 C-343.3213737 645.98279174 -341.84451845 644.24727839 -340.36767578 642.51171875 C-335.13011214 636.36759008 -329.83962231 630.28492793 -324.41455078 624.3046875 C-322.55548534 622.24708109 -320.72354845 620.16965737 -318.90283203 618.078125 C-315.5103011 614.18299689 -312.05089003 610.35029737 -308.59033203 606.515625 C-306.67729054 604.38395019 -304.78395591 602.2379339 -302.90283203 600.078125 C-298.0314 594.48832511 -293.04388053 589.00277602 -288.07470703 583.5 C-284.64838728 579.70074749 -281.23742512 575.89573908 -277.90283203 572.015625 C-274.59292686 568.20304732 -271.03762459 564.6741821 -267.41845703 561.15625 C-265.36123812 559.13427443 -265.36123812 559.13427443 -263.76220703 556.8125 C-263.31361328 556.24015625 -262.86501953 555.6678125 -262.40283203 555.078125 C-261.74283203 555.078125 -261.08283203 555.078125 -260.40283203 555.078125 C-260.17595703 554.52640625 -259.94908203 553.9746875 -259.71533203 553.40625 C-258.01557277 550.39120083 -255.85478387 548.26582131 -253.40283203 545.828125 C-252.51595703 544.93609375 -251.62908203 544.0440625 -250.71533203 543.125 C-248.40283203 541.078125 -248.40283203 541.078125 -246.40283203 541.078125 C-246.13889648 540.47653564 -245.87496094 539.87494629 -245.60302734 539.25512695 C-244.33511666 536.95529791 -243.23243483 535.8784781 -241.19970703 534.24609375 C-234.28329309 528.39025909 -228.03488498 521.81446802 -221.65283203 515.390625 C-220.32624398 514.05901077 -218.99942284 512.72762871 -217.67236328 511.39648438 C-214.72124018 508.43549882 -211.77163877 505.47301956 -208.82650757 502.506073 C-207.5834366 501.25927156 -206.32970749 500.02311464 -205.07421875 498.78881836 C-203.3713508 497.04590341 -202.34928557 495.50704733 -201.27783203 493.328125 C-200.96587891 492.71453125 -200.65392578 492.1009375 -200.33251953 491.46875 C-197.91813655 485.26033661 -197.11775164 479.65138535 -197.45117188 473.02685547 C-197.48014053 472.26432968 -197.50910919 471.50180389 -197.53895569 470.71617126 C-197.6366731 468.20866848 -197.75038932 465.7021515 -197.86376953 463.1953125 C-197.9350646 461.41778155 -198.00516015 459.64020214 -198.0741272 457.86257935 C-198.25840757 453.17522186 -198.45540429 448.48849528 -198.65618896 443.80181885 C-200.28424973 405.67513535 -200.57876629 367.86845912 -199.28588867 329.72485352 C-199.15501423 325.85880643 -199.03001469 321.99264751 -198.91088867 318.1262207 C-197.82376469 282.88266468 -196.48237291 247.51929823 -191.83276367 212.53491211 C-191.45438842 209.68314437 -191.09650786 206.82927649 -190.74072266 203.97460938 C-189.52215585 194.38038089 -188.09189028 184.83995898 -186.38330078 175.3203125 C-186.22749039 174.44698776 -186.07167999 173.57366302 -185.91114807 172.6738739 C-178.33201423 131.77455583 -157.86605388 92.41284917 -135.45654297 57.74902344 C-134.51265843 56.25227975 -133.62918929 54.71783373 -132.75439453 53.1796875 C-118.87945929 29.16266762 -90.82804234 12.70767465 -64.64648438 5.61032104 C-57.78359843 3.98243927 -50.72502284 3.45896127 -43.71533203 2.828125 C-42.01726614 2.66443924 -40.31926851 2.50004399 -38.62133789 2.33496094 C-25.7414702 1.10611748 -12.93343151 0.2969363 0 0 Z M-34.40283203 89.078125 C-35.98015075 89.88434659 -37.5596234 90.68636664 -39.14111328 91.484375 C-59.15172548 101.8361852 -78.47998207 116.49566526 -88.21533203 137.203125 C-88.72451172 138.27916992 -89.23369141 139.35521484 -89.75830078 140.46386719 C-98.7477831 160.03611694 -105.45048308 180.72144138 -108.40283203 202.078125 C-108.4982428 202.75977722 -108.59365356 203.44142944 -108.69195557 204.14373779 C-114.97477258 249.1220826 -117.06163946 293.96842895 -118.46014404 339.32567978 C-118.52701162 341.48908169 -118.59475006 343.65245504 -118.66259766 345.81582642 C-119.40401332 369.60111043 -119.4906667 393.17566589 -118.54751587 416.95581055 C-117.83922455 434.99460543 -117.19766451 453.02363902 -117.21533203 471.078125 C-117.21424438 472.17859665 -117.21424438 472.17859665 -117.21313477 473.30130005 C-117.21445782 484.88975079 -117.21445782 484.88975079 -118.40283203 486.078125 C-118.61639696 487.81624745 -118.82399879 489.55535282 -118.99829102 491.29785156 C-120.72518179 508.44632368 -120.72518179 508.44632368 -125.95361328 515.03125 C-127.72646269 517.5352206 -128.08721385 519.57226838 -128.65283203 522.578125 C-130.56127745 530.79448476 -134.59667818 538.04314014 -140.15283203 544.390625 C-142.56763863 546.98536413 -142.56763863 546.98536413 -143.68994141 550.3659668 C-145.38695318 554.46090965 -147.90369759 557.11061491 -151.05908203 560.16015625 C-151.60262329 560.70040939 -152.14616455 561.24066254 -152.70617676 561.79728699 C-154.429201 563.50468082 -156.16591255 565.19738188 -157.90283203 566.890625 C-159.06906158 568.04535103 -160.23443475 569.20094265 -161.39892578 570.35742188 C-162.51403801 571.45911649 -163.62989778 572.56005508 -164.74658203 573.66015625 C-165.26853149 574.17471878 -165.79048096 574.68928131 -166.32824707 575.21943665 C-168.6012216 577.43294599 -170.75297378 579.31155283 -173.40283203 581.078125 C-173.40283203 581.738125 -173.40283203 582.398125 -173.40283203 583.078125 C-173.9834137 583.33404419 -174.56399536 583.58996338 -175.16217041 583.8536377 C-177.62466811 585.19935503 -179.26845824 586.68983314 -181.25341797 588.66992188 C-182.36411652 589.77116394 -182.36411652 589.77116394 -183.49725342 590.89465332 C-184.28593811 591.68738647 -185.0746228 592.48011963 -185.88720703 593.296875 C-187.11059784 594.51739563 -187.11059784 594.51739563 -188.35870361 595.76257324 C-190.07916182 597.48167146 -191.79710093 599.20329394 -193.51269531 600.92724609 C-196.14964135 603.57492134 -198.79710583 606.21174031 -201.44580078 608.84765625 C-203.11441145 610.517588 -204.78240189 612.18813978 -206.44970703 613.859375 C-207.24648865 614.65210815 -208.04327026 615.44484131 -208.86419678 616.26159668 C-209.59205383 616.99575806 -210.31991089 617.72991943 -211.06982422 618.48632812 C-211.71506042 619.13315552 -212.36029663 619.77998291 -213.02508545 620.44641113 C-214.61787908 621.97688382 -214.61787908 621.97688382 -214.40283203 624.078125 C-215.06283203 624.078125 -215.72283203 624.078125 -216.40283203 624.078125 C-217.87153931 625.49132419 -217.87153931 625.49132419 -219.40283203 627.390625 C-222.34032626 630.84830049 -225.34007819 634.23057241 -228.40283203 637.578125 C-231.8386392 641.34509431 -235.22581372 645.14522362 -238.56689453 648.99609375 C-240.76916182 651.49355857 -243.02423239 653.939402 -245.27783203 656.390625 C-248.56715442 659.99203671 -251.72300839 663.65119775 -254.77783203 667.453125 C-258.1666937 671.65627145 -261.71524299 675.64013696 -265.40283203 679.578125 C-269.9261277 684.4093412 -274.1870312 689.37968132 -278.33251953 694.54296875 C-280.25171087 696.89307286 -282.23642193 699.14672685 -284.27783203 701.390625 C-288.58840938 706.18678122 -292.52193647 711.24749823 -296.47705078 716.3359375 C-298.92874348 719.48658129 -301.42902337 722.5947094 -303.94262695 725.69604492 C-309.58173265 732.66604105 -314.8798611 739.80553871 -320.02978516 747.14160156 C-321.55845522 749.29761346 -323.11104416 751.43497464 -324.66845703 753.5703125 C-325.2357251 754.34914795 -325.80299316 755.1279834 -326.38745117 755.93041992 C-327.48071502 757.42964125 -328.57607638 758.92733654 -329.67407227 760.4230957 C-336.48777543 769.79260704 -342.36944149 779.35729759 -347.21533203 789.890625 C-347.72233643 790.99212891 -348.22934082 792.09363281 -348.75170898 793.22851562 C-352.69060141 802.02175044 -356.0252118 810.94897421 -359.09033203 820.078125 C-359.5122583 821.32311768 -359.93418457 822.56811035 -360.36889648 823.85083008 C-363.68784725 834.06378492 -364.89489652 842.92665769 -363.71533203 853.578125 C-363.6228418 854.43833252 -363.53035156 855.29854004 -363.43505859 856.18481445 C-361.70560671 871.06110129 -357.99951036 885.19796906 -352.40283203 899.078125 C-352.14083008 899.75085449 -351.87882813 900.42358398 -351.60888672 901.11669922 C-344.91119543 917.86902623 -331.42749598 929.28363146 -317.40283203 940.078125 C-316.43603516 940.861875 -315.46923828 941.645625 -314.47314453 942.453125 C-272.28337974 976.39737669 -215.75971371 993.86278099 -165.4032135 1011.85437012 C-158.6979598 1014.25099557 -152.00307156 1016.67467094 -145.31298828 1019.11328125 C-113.32689722 1030.7479623 -80.9694466 1040.4240457 -48.21533203 1049.640625 C-46.95042938 1049.99663788 -45.68552673 1050.35265076 -44.3822937 1050.7194519 C-40.75076719 1051.73957881 -37.11809317 1052.75548946 -33.48486328 1053.76953125 C-32.39881805 1054.07424347 -31.31277283 1054.37895569 -30.19381714 1054.69290161 C-29.16813629 1054.97801605 -28.14245544 1055.26313049 -27.08569336 1055.55688477 C-26.12184723 1055.82501984 -25.1580011 1056.09315491 -24.16494751 1056.36941528 C-20.85233043 1057.21937392 -17.52071652 1057.84078653 -14.14213562 1058.36631775 C-11.73116936 1059.35300189 -11.42491808 1060.75805553 -10.40283203 1063.078125 C-8.44542563 1064.10568641 -8.44542563 1064.10568641 -6.09033203 1064.765625 C-1.42575078 1066.47914464 2.46090992 1068.72204355 6.53466797 1071.515625 C7.61619141 1072.25683594 8.69771484 1072.99804688 9.81201172 1073.76171875 C12.5803096 1076.06410394 13.8044241 1078.01931907 15.59716797 1081.078125 C17.55686641 1082.43648641 17.55686641 1082.43648641 19.78466797 1083.390625 C28.31095581 1087.85414359 33.23487033 1094.52926649 37.95654297 1102.7578125 C39.34510122 1105.18361371 39.34510122 1105.18361371 41.46340942 1105.77453613 C44.72323225 1107.76607766 45.82273281 1110.90302706 47.37792969 1114.25585938 C48.08245193 1115.71966793 48.78702253 1117.18345321 49.49163818 1118.6472168 C49.84378136 1119.39010956 50.19592453 1120.13300232 50.55873871 1120.89840698 C52.10428107 1124.14258225 53.70937319 1127.35627876 55.3125 1130.57226562 C55.9339941 1131.82732151 56.55509249 1133.08257342 57.17581177 1134.3380127 C59.5901312 1139.21657834 62.01316101 1144.09081105 64.43684578 1148.96472931 C66.25599682 1152.62378173 68.07212818 1156.28426764 69.88134766 1159.94824219 C78.4133304 1177.22088983 87.2199573 1194.12862488 97.15840149 1210.6472168 C99.37267809 1214.38840985 101.4579437 1218.19691945 103.53466797 1222.015625 C108.76668274 1231.53467893 114.38817175 1240.81277875 120.00341797 1250.109375 C122.51731267 1254.27301309 124.99935334 1258.45231182 127.44384766 1262.65698242 C141.31599409 1286.51625207 156.29993652 1309.80025816 172.59716797 1332.078125 C173.14405273 1332.82868164 173.6909375 1333.57923828 174.25439453 1334.35253906 C184.13380687 1347.94016933 184.13380687 1347.94016933 194.59716797 1361.078125 C195.17595703 1361.779375 195.75474609 1362.480625 196.35107422 1363.203125 C199.73449723 1367.19965151 203.29764219 1370.70899812 207.29248047 1374.08984375 C211.15479843 1377.42191128 214.84779126 1380.94246736 218.56982422 1384.4296875 C219.57209226 1385.32026536 220.58133059 1386.20305667 221.59716797 1387.078125 C222.10691162 1387.51979004 222.61665527 1387.96145508 223.1418457 1388.41650391 C228.12692484 1392.36811813 233.42383978 1393.72596329 239.53466797 1395.203125 C241.44054444 1395.68120927 243.34551409 1396.16292466 245.24951172 1396.6484375 C246.16845215 1396.87950195 247.08739258 1397.11056641 248.03417969 1397.34863281 C250.31988879 1397.99920423 252.36924677 1398.8017617 254.53857422 1399.7578125 C258.71710053 1401.38587775 262.49560084 1401.20704426 266.93457031 1401.08984375 C271.40745667 1401.07553242 275.81577403 1401.38528451 280.27294922 1401.734375 C281.56445389 1401.83443848 281.56445389 1401.83443848 282.88204956 1401.93652344 C285.55821804 1402.14684253 288.23396421 1402.36197978 290.90966797 1402.578125 C293.61005291 1402.79411714 296.31052737 1403.00869792 299.01127625 1403.22009277 C300.67882839 1403.35080753 302.34617497 1403.48418309 304.01325989 1403.62072754 C311.45252221 1404.20743582 318.36911233 1404.12662389 325.72216797 1402.703125 C330.92006355 1401.70849031 336.01019252 1400.94497793 341.28466797 1400.453125 C348.60612997 1399.34215689 353.96912556 1395.58757831 359.83105469 1391.35009766 C361.56909551 1390.09834307 363.32962292 1388.88746869 365.10107422 1387.68359375 C376.0189083 1380.18472152 386.52277306 1371.75383523 395.59716797 1362.078125 C395.59716797 1361.418125 395.59716797 1360.758125 395.59716797 1360.078125 C396.25716797 1360.078125 396.91716797 1360.078125 397.59716797 1360.078125 C399.02949577 1358.66164829 399.02949577 1358.66164829 400.53466797 1356.765625 C403.56596084 1353.19009165 406.75956497 1349.86981874 410.09716797 1346.578125 C413.84569347 1342.87578386 417.44145387 1339.10160438 420.86279297 1335.09375 C422.85629378 1332.77697879 424.91271185 1330.52392516 426.97216797 1328.265625 C431.70322875 1323.01685555 436.15776237 1317.57387438 440.59716797 1312.078125 C441.6316024 1310.81190997 442.66680419 1309.54632157 443.70263672 1308.28125 C449.63401945 1301.02807644 455.46801821 1293.71806683 461.15185547 1286.26953125 C463.68575588 1282.9518137 466.2629976 1279.66925907 468.84716797 1276.390625 C475.46898372 1267.98304434 482.03959115 1259.535875 488.59716797 1251.078125 C489.06010254 1250.48112793 489.52303711 1249.88413086 490 1249.26904297 C492.45880563 1246.09467738 494.90724311 1242.91259246 497.34326172 1239.72070312 C498.2038603 1238.59334579 499.06591757 1237.46710095 499.92919922 1236.34179688 C516.10250794 1215.22537831 530.67067074 1193.03834825 545.21801758 1170.78808594 C546.42461188 1168.94562399 547.63171424 1167.10349466 548.83935547 1165.26171875 C549.41909622 1164.37735138 549.99883698 1163.49298401 550.59614563 1162.58181763 C554.50164129 1156.65638419 558.52734152 1150.83599628 562.76095581 1145.13975525 C564.95117721 1142.40082002 564.95117721 1142.40082002 565.59716797 1139.078125 C566.70125 1138.97564453 566.70125 1138.97564453 567.82763672 1138.87109375 C571.41726119 1137.84331693 572.56308216 1136.26058096 574.90966797 1133.390625 C580.95628441 1126.38612873 586.92995824 1122.29128558 595.24169922 1118.35546875 C597.49071042 1117.13585571 599.02235625 1115.91027868 600.84716797 1114.140625 C607.67715591 1107.84600429 618.01133568 1105.20024583 626.59716797 1102.078125 C627.31259766 1101.75287842 628.02802734 1101.42763184 628.76513672 1101.0925293 C632.56949872 1099.72984618 636.3590782 1099.18713101 640.34716797 1098.59765625 C641.65063675 1098.39761993 641.65063675 1098.39761993 642.98043823 1098.19354248 C644.8636528 1097.9052926 646.74728808 1097.61978096 648.63128662 1097.33670044 C651.64448166 1096.88350891 654.65632799 1096.42214119 657.66796875 1095.95874023 C666.89890371 1094.54090978 676.1331194 1093.14575514 685.37019348 1091.76852417 C710.64265328 1087.99409494 735.64291611 1083.57736988 760.59716797 1078.078125 C761.74042542 1077.8267981 762.88368286 1077.57547119 764.06158447 1077.31652832 C825.86674957 1063.74952169 825.86674957 1063.74952169 886.59716797 1046.078125 C887.8665044 1045.66494057 889.1358735 1045.25185648 890.40527344 1044.83886719 C904.65891291 1040.18518626 918.46170655 1035.36372395 931.59716797 1028.078125 C932.72638672 1027.49417969 933.85560547 1026.91023438 935.01904297 1026.30859375 C947.02957766 1020.06367959 957.93013208 1012.38296213 968.59716797 1004.078125 C969.37833984 1003.51222656 970.15951172 1002.94632813 970.96435547 1002.36328125 C988.82578454 988.34746235 997.79555643 960.43966545 1002.59716797 939.078125 C1002.88849609 937.87542969 1003.17982422 936.67273437 1003.47998047 935.43359375 C1011.33787553 894.47318674 982.10376285 845.72826455 962.59716797 812.078125 C961.71172719 810.53777428 960.82630906 808.99741053 959.94091797 807.45703125 C954.15329195 797.44643084 947.97496399 787.72149414 941.59716797 778.078125 C940.7512207 776.79784424 940.7512207 776.79784424 939.88818359 775.49169922 C924.69589688 752.53492219 909.32097288 729.67502827 893.59716797 707.078125 C893.12021484 706.39153809 892.64326172 705.70495117 892.15185547 704.99755859 C885.53641877 695.492109 878.72607495 686.2045035 871.59716797 677.078125 C870.36315769 675.47523959 869.13293419 673.86950046 867.90307617 672.26342773 C860.71322248 662.87977222 853.46125627 653.54641278 845.95507812 644.41308594 C840.31764108 637.54133607 834.80667287 630.57793949 829.40966797 623.515625 C828.7615918 622.68272949 828.11351562 621.84983398 827.44580078 620.99169922 C823.97942274 616.41026898 821.92001627 612.75137134 820.59716797 607.078125 C819.67689835 605.23502233 818.69850351 603.41959783 817.65966797 601.640625 C813.40608973 594.01530791 811.49243937 588.27129545 810.90576172 579.54296875 C810.52038441 576.46482844 809.28911769 574.64988857 807.59716797 572.078125 C805.35555049 565.11731283 805.44016161 558.43934129 805.58276367 551.19848633 C805.79382689 547.00748453 805.79382689 547.00748453 804.59716797 543.078125 C804.70248866 533.71009575 806.19172872 524.47819067 807.80298805 515.2724514 C808.19316222 513.04124654 808.57420234 510.80862914 808.95329285 508.57551575 C809.89859501 503.01684158 810.85708499 497.46046473 811.8180542 491.90447998 C817.67557391 458.0285939 821.72706674 424.16622136 825.00018311 389.95123291 C825.29763448 386.8551051 825.60001249 383.75946606 825.90229607 380.66380692 C829.30719592 346.73624749 829.30719592 346.73624749 831.22216797 312.703125 C831.25938965 311.58357422 831.29661133 310.46402344 831.33496094 309.31054688 C831.79831968 293.56916134 831.76408987 277.82376951 831.59716797 262.078125 C831.58991699 261.04655273 831.58266602 260.01498047 831.57519531 258.95214844 C831.34264456 237.20274037 826.31784365 215.68732029 819.59716797 195.078125 C819.3694873 194.37091309 819.14180664 193.66370117 818.90722656 192.93505859 C810.57311845 167.77560095 787.5375055 148.80106643 765.15966797 136.015625 C764.53398926 135.65750732 763.90831055 135.29938965 763.26367188 134.93041992 C755.42008085 130.63807735 747.42185188 128.59775606 738.59716797 127.453125 C737.18298584 127.2670166 737.18298584 127.2670166 735.74023438 127.07714844 C728.49703719 126.18673738 721.26158566 125.65192239 713.97216797 125.328125 C712.56451172 125.26117432 712.56451172 125.26117432 711.12841797 125.19287109 C694.03290571 124.60506808 677.54826125 126.37495137 660.78466797 129.578125 C659.83808319 129.75552216 658.89149841 129.93291931 657.91622925 130.11569214 C620.96830209 137.04619203 584.97466864 146.5938435 548.89611816 157.11669922 C545.66812303 158.05744629 542.43895696 158.99406695 539.20947266 159.9296875 C504.24562475 170.0731007 469.99525525 181.49723654 435.94970703 194.38427734 C427.02898006 197.7539495 418.07838702 201.02666599 409.05810547 204.12109375 C408.16966949 204.43371658 407.28123352 204.74633942 406.36587524 205.06843567 C405.53776337 205.34773422 404.70965149 205.62703278 403.85644531 205.91479492 C403.12888031 206.16436447 402.40131531 206.41393402 401.65170288 206.67106628 C399.28537354 207.13989988 397.89391039 206.72036081 395.59716797 206.078125 C393.41489307 206.48027102 391.24821181 206.970597 389.09716797 207.515625 C381.27553943 209.28993824 373.76988663 210.30116323 365.97216797 208.015625 C362.65625221 207.09453729 361.31665793 207.14061356 358.03466797 207.640625 C349.11058289 208.796947 339.97133043 205.84343592 331.65966797 202.7265625 C329.52686632 201.9865448 329.52686632 201.9865448 326.92407227 201.75683594 C323.01811532 200.95999435 319.80118855 199.40506055 316.30419922 197.5703125 C315.26523247 197.03783401 315.26523247 197.03783401 314.20527649 196.49459839 C312.73941214 195.74234647 311.27536518 194.98654382 309.81304932 194.22741699 C307.65479775 193.10801534 305.49120705 191.99980761 303.32519531 190.89550781 C298.97295138 188.67516558 294.62845875 186.43994779 290.28466797 184.203125 C288.72526753 183.40135335 287.1658599 182.59959569 285.60644531 181.79785156 C278.66639648 178.22668966 271.73531113 174.64303878 264.85107422 170.96508789 C244.08301272 159.87370459 222.73520462 150.07420021 201.08207703 140.85205078 C195.36803969 138.41583495 189.67107289 135.94128542 183.97607422 133.4609375 C162.97949706 124.32413957 141.96271181 115.32210813 120.59716797 107.078125 C119.70288086 106.72814453 118.80859375 106.37816406 117.88720703 106.01757812 C105.45629161 101.17560953 92.76149216 97.13938228 80.03723145 93.14865112 C78.18902921 92.56890901 76.34158876 91.98673156 74.49499512 91.40188599 C63.26780364 87.85686814 52.23740492 84.90992803 40.59716797 83.078125 C39.79166504 82.94253174 38.98616211 82.80693848 38.15625 82.66723633 C14.38996834 78.89265944 -12.94255774 77.10924752 -34.40283203 89.078125 Z " fill="#FFD471" transform="translate(1176.40283203125,127.921875)"/>
</svg>
