<?xml version="1.0" encoding="UTF-8"?>
<svg version="1.1" xmlns="http://www.w3.org/2000/svg" width="2500" height="2500">
<path d="M0 0 C0.91346191 0.50370117 1.82692383 1.00740234 2.76806641 1.52636719 C12.05810306 6.78510752 20.97545841 12.61205856 29.875 18.5 C30.59196045 18.97095093 31.3089209 19.44190186 32.04760742 19.92712402 C39.20840538 24.6466849 45.98386861 29.21414807 51.86132812 35.52490234 C54.35576204 38.15089609 57.17290311 40.26826438 60.0625 42.4375 C66.53172014 47.40800134 72.69221297 52.67356005 78.828125 58.046875 C82.2865776 61.07529872 85.7922672 64.04384011 89.3125 67 C94.03879338 70.97717731 98.66564442 75.0501988 103.23828125 79.203125 C105.30673875 81.0750969 107.39560914 82.9186339 109.5 84.75 C115.02068377 89.56119831 120.44916808 94.47605876 125.8671875 99.40234375 C131.24633314 104.27884791 136.72278672 109.02461551 142.25024414 113.73095703 C145.96030366 116.90006073 149.59607689 120.13339074 153.1875 123.4375 C157.57355646 127.46393836 162.11741628 131.23109722 166.75 134.96875 C170.53763346 138.11076412 174.12994271 141.44915181 177.75 144.78125 C180.43737634 147.19378104 183.18965444 149.4825621 186 151.75 C189.78460334 154.80348679 193.42207537 157.95668301 197 161.25 C201.36686729 165.26529746 205.86811827 169.04137958 210.48046875 172.76953125 C218.42077912 179.29229591 226.14811366 186.08699685 233.75 193 C237.00010013 195.9507488 240.32617333 198.75297627 243.75 201.5 C249.51234335 206.1589159 254.88492006 211.18327716 260.28515625 216.25 C263.2830904 219.06018474 266.35150417 221.77491637 269.4609375 224.4609375 C273.67970106 228.16245801 277.78523259 231.9912567 281.91357422 235.79296875 C283.50210515 237.25193345 285.09586496 238.70495777 286.69140625 240.15625 C291.48264695 244.51895737 296.21906835 248.90360653 300.75341797 253.53588867 C302.4992874 255.24930065 304.30797238 256.83753682 306.16796875 258.42578125 C310.65529957 262.330716 314.86901782 266.47124778 319.0625 270.6875 C319.77857422 271.39970703 320.49464844 272.11191406 321.23242188 272.84570312 C325.31345287 276.93416093 329.20326984 281.12724639 332.97485352 285.50219727 C334.79677891 287.59010568 336.71009723 289.5592913 338.6875 291.5 C339.63689453 292.43585938 339.63689453 292.43585938 340.60546875 293.390625 C341.23066406 294.00421875 341.85585938 294.6178125 342.5 295.25 C343.83449731 296.58216834 345.16814404 297.91519093 346.5 299.25 C347.04487061 298.93474365 347.58974121 298.6194873 348.15112305 298.29467773 C364.67609142 288.76662947 381.46815484 279.82894487 398.5 271.25 C399.67836426 270.65541992 400.85672852 270.06083984 402.07080078 269.44824219 C432.16089527 254.35945329 463.29750231 242.21279904 495.04730225 231.10986328 C497.60824547 230.21205146 500.16684847 229.30780177 502.72509766 228.40234375 C507.22595945 226.8106852 511.73185327 225.23404207 516.24142456 223.66723633 C517.95487928 223.07046477 519.66713075 222.47022332 521.37796021 221.8659668 C544.43378899 213.74085922 568.22291741 209.71095682 592.25273895 205.64144135 C594.58932613 205.24545371 596.92558155 204.8475551 599.26177979 204.44927979 C629.85241295 199.24005538 660.4817626 194.05552306 691.5 192.25 C692.43489258 192.19360352 693.36978516 192.13720703 694.33300781 192.07910156 C765.88479119 187.99801773 839.15483011 192.38239492 909.5 206.25 C909.61214844 204.72439453 909.61214844 204.72439453 909.7265625 203.16796875 C910.58646763 198.81198468 912.25299343 196.02539635 914.875 192.5625 C915.31255615 191.96598633 915.7501123 191.36947266 916.20092773 190.75488281 C920.23236482 185.37013142 924.70636469 180.43837731 929.34765625 175.578125 C931.51666666 173.44899484 931.51666666 173.44899484 932.5 171.25 C933.16 171.25 933.82 171.25 934.5 171.25 C934.7460498 170.67870361 934.99209961 170.10740723 935.24560547 169.51879883 C936.71005504 166.87007757 938.4243843 165.08314406 940.5703125 162.94921875 C941.385 162.13646484 942.1996875 161.32371094 943.0390625 160.48632812 C943.89242188 159.64521484 944.74578125 158.80410156 945.625 157.9375 C946.45515625 157.10798828 947.2853125 156.27847656 948.140625 155.42382812 C952.48933485 151.105791 956.92124695 146.96387775 961.56591797 142.96801758 C965.03374064 139.88759999 968.25331466 136.56009716 971.5 133.25 C976.04589865 128.61531426 980.65555793 124.16194633 985.57568359 119.92480469 C988.56492799 117.32315326 991.43021001 114.59376466 994.3125 111.875 C999.30756434 107.20118528 1004.40889747 102.74711175 1009.75390625 98.47265625 C1012.18826682 96.5023132 1014.56168142 94.47616743 1016.92602539 92.42285156 C1031.50374784 79.82364736 1047.50601233 68.95292528 1063.5 58.25 C1064.54655762 57.54496338 1064.54655762 57.54496338 1065.61425781 56.82568359 C1096.41054624 36.14566047 1127.56593241 20.82674715 1164.5 15.25 C1165.16684814 15.146875 1165.83369629 15.04375 1166.52075195 14.9375 C1174.27779008 13.90458088 1182.12574036 14.00623512 1189.9375 14 C1191.07625076 13.99898788 1191.07625076 13.99898788 1192.23800659 13.99795532 C1203.59072506 14.01398579 1214.45024915 14.47921656 1225.5 17.25 C1226.19754395 17.42160645 1226.89508789 17.59321289 1227.61376953 17.77001953 C1254.00082771 24.40980323 1273.75819067 38.0370558 1293.4921875 56.45703125 C1297.08695759 59.8084872 1300.77837336 63.04059724 1304.5 66.25 C1320.64933002 80.28571628 1320.64933002 80.28571628 1327.68994141 87.47241211 C1329.45989225 89.21061175 1331.28929569 90.82336872 1333.17578125 92.43359375 C1337.66081283 96.33559182 1341.87160308 100.47384708 1346.0625 104.6875 C1346.77857422 105.39970703 1347.49464844 106.11191406 1348.23242188 106.84570312 C1352.28487303 110.90552908 1356.15844627 115.0629919 1359.90307617 119.40795898 C1362.16621538 122.01847501 1364.5201279 124.53437154 1366.875 127.0625 C1371.1655487 131.70691597 1375.22872414 136.48758799 1379.1953125 141.4140625 C1381.25814156 143.95239114 1383.35871397 146.44858988 1385.48364258 148.93457031 C1391.17212158 155.59026043 1396.62934768 162.39959183 1401.99609375 169.31640625 C1403.59512203 171.37229975 1405.20320039 173.42088838 1406.8125 175.46875 C1414.65394201 185.46744462 1422.26173138 195.61766338 1429.75878906 205.87646484 C1431.47270065 208.21278683 1433.19882247 210.53949868 1434.9296875 212.86328125 C1485.78285896 281.20988583 1543.38654358 364.67763778 1550.875 452.30078125 C1551.68228915 456.11017693 1553.09213734 457.35004668 1556.0625 459.8125 C1556.97386719 460.58078125 1557.88523437 461.3490625 1558.82421875 462.140625 C1560.97684716 463.83758754 1563.14706145 465.46776504 1565.375 467.0625 C1574.12864714 473.43685968 1581.5504436 482.00959727 1588.5 490.25 C1589.27214844 491.13300781 1590.04429688 492.01601563 1590.83984375 492.92578125 C1607.52094749 512.11312829 1622.94572396 533.12181263 1635.5 555.25 C1635.94279297 556.0234375 1636.38558594 556.796875 1636.84179688 557.59375 C1662.21558291 602.14580229 1681.75686817 647.68043795 1667.73291016 699.36645508 C1664.06995901 711.75127396 1658.19594759 722.66748074 1649.5 732.25 C1648.2625 733.7040625 1648.2625 733.7040625 1647 735.1875 C1643.16289792 738.35310922 1638.93670433 739.62353511 1634.16015625 740.8515625 C1629.46774871 742.14763513 1626.24379686 743.43060908 1623.62109375 747.83203125 C1612.89338001 770.96950443 1614.93909353 798.17987503 1616.24462891 823.05541992 C1616.37429943 825.54902789 1616.49412789 828.0429794 1616.61328125 830.53710938 C1616.69732003 832.18753049 1616.78193718 833.83792227 1616.8671875 835.48828125 C1616.90061249 836.20139969 1616.93403748 836.91451813 1616.96847534 837.64924622 C1617.72012667 851.42404912 1619.64382741 865.05093313 1622.09373283 878.61495018 C1622.53885161 881.07963584 1622.97665994 883.54553708 1623.41297913 886.01179504 C1624.0456743 889.58487037 1624.68105733 893.15745151 1625.31854248 896.72967529 C1627.03382166 906.3512975 1628.71984103 915.97806865 1630.40234375 925.60546875 C1630.57451668 926.59045097 1630.74668961 927.5754332 1630.9240799 928.59026337 C1646.64315464 1018.62408224 1659.79415764 1109.01174344 1680.0918808 1408.47227478 C1680.18423997 1410.9741891 1680.27796802 1413.4760491 1680.37188721 1415.97790527 C1682.32963624 1468.53712267 1682.68924666 1521.10074535 1682.68511146 1573.68980569 C1682.6854159 1579.38127746 1682.69364713 1585.07270225 1682.70581055 1590.76416016 C1682.83629584 1653.29311864 1682.83629584 1653.29311864 1681.59375 1683.98828125 C1681.53332803 1685.48706188 1681.53332803 1685.48706188 1681.47168541 1687.01612091 C1679.31550957 1738.67830936 1673.21878128 1790.64926829 1662.5 1841.25 C1662.35751831 1841.92411926 1662.21503662 1842.59823853 1662.0682373 1843.29278564 C1658.33646087 1860.78090403 1653.24218009 1877.70246994 1647.5 1894.625 C1647.21285126 1895.47550934 1646.92570251 1896.32601868 1646.62985229 1897.20230103 C1642.55550742 1909.19461081 1637.85408177 1920.77310873 1632.5 1932.25 C1632.05092285 1933.21663574 1631.6018457 1934.18327148 1631.13916016 1935.17919922 C1630.05584735 1937.46670361 1628.94572287 1939.73685959 1627.8125 1942 C1627.41023193 1942.80800049 1627.00796387 1943.61600098 1626.59350586 1944.44848633 C1622.72663659 1952.06937141 1618.38115589 1959.39267784 1613.87817383 1966.65332031 C1611.51856461 1970.51693179 1609.43733233 1974.02405927 1608.2578125 1978.41015625 C1605.95305124 1986.01712327 1600.73454871 1992.49548285 1596.3125 1999 C1595.31739495 2000.47798072 1594.32235969 2001.95600844 1593.32739258 2003.43408203 C1585.47762356 2015.03912777 1577.26798511 2026.31756719 1568.5 2037.25 C1567.81945557 2038.11310791 1567.13891113 2038.97621582 1566.43774414 2039.86547852 C1560.87829314 2046.8183343 1554.88053709 2053.17207668 1548.5625 2059.4375 C1547.63759766 2060.37013672 1546.71269531 2061.30277344 1545.75976562 2062.26367188 C1536.76108994 2071.23712352 1527.08761626 2078.69934773 1516.625 2085.875 C1514.586931 2087.28080273 1512.5491761 2088.68706093 1510.51171875 2090.09375 C1508.99457275 2091.13982422 1508.99457275 2091.13982422 1507.44677734 2092.20703125 C1504.72993777 2094.09058664 1502.02753514 2095.9923323 1499.33203125 2097.90625 C1488.21744257 2105.79313391 1476.88579095 2113.24565159 1465.33300781 2120.47460938 C1462.51591292 2122.24002768 1459.70657403 2124.01724899 1456.8984375 2125.796875 C1442.14518225 2135.11743727 1427.17668834 2144.05309615 1412.14541626 2152.91532898 C1408.22658504 2155.22661417 1404.31641853 2157.55157406 1400.4140625 2159.890625 C1365.14441081 2181.00245458 1328.07228348 2198.65364679 1290.5 2215.25 C1289.8684198 2215.52978699 1289.2368396 2215.80957397 1288.58612061 2216.09783936 C1250.12273942 2233.11984147 1210.5353618 2247.5490434 1171.00967407 2261.88265991 C1164.28449639 2264.32316851 1157.57466916 2266.80268345 1150.875 2269.3125 C1149.92093262 2269.66844238 1148.96686523 2270.02438477 1147.98388672 2270.39111328 C1144.21687613 2271.80603921 1140.47014392 2273.23493723 1136.78125 2274.84375 C1125.47249683 2279.72000137 1113.62537635 2282.55705292 1101.72947693 2285.61639404 C1096.78538745 2286.89572044 1091.86877573 2288.25833438 1086.95703125 2289.65625 C1085.52008222 2290.06166432 1084.08307076 2290.46685743 1082.64599609 2290.87182617 C1080.58659238 2291.45227757 1078.52859527 2292.0359486 1076.47442627 2292.63467407 C1067.98297456 2295.10577221 1059.65964185 2296.77774261 1050.90031433 2297.9359436 C1041.58872941 2299.18422428 1032.33873435 2300.74907677 1023.078125 2302.32421875 C1021.36912891 2302.61399237 1019.66011378 2302.90365365 1017.95108032 2303.19320679 C1015.29881845 2303.64264985 1012.64657039 2304.09217267 1009.9943924 2304.54211044 C956.97633254 2313.53150845 904.08321987 2321.57263273 850.4588623 2326 C847.66042866 2326.23644507 844.86384718 2326.4874968 842.06738281 2326.74609375 C773.23470392 2333.10111094 702.34100131 2329.96565023 633.65478516 2323.70849609 C629.31788258 2323.31549246 624.98035023 2322.98483953 620.63671875 2322.67578125 C607.44955197 2321.63119647 594.9922051 2318.8627084 582.25 2315.4375 C581.47231262 2315.22889343 580.69462524 2315.02028687 579.89337158 2314.80535889 C569.4356786 2311.96371832 559.48056259 2308.47444246 549.5 2304.25 C548.10950439 2303.6785022 548.10950439 2303.6785022 546.69091797 2303.09545898 C534.82634374 2298.20332894 523.20991049 2292.78566831 511.70065308 2287.11468506 C510.29105784 2286.42102329 508.8795709 2285.73119066 507.46609497 2285.04547119 C500.44094479 2281.62803389 494.03956576 2278.31189125 488.33325195 2272.86499023 C484.97015435 2269.90229338 480.99572267 2267.97879917 477.0625 2265.875 C456.18363309 2254.31192642 436.30293506 2240.44795653 418.71484375 2224.28515625 C416.73434003 2222.46532831 414.72373723 2220.69433669 412.6875 2218.9375 C399.23770365 2207.18577413 386.04199622 2194.90362963 374.5 2181.25 C373.55241856 2180.16393387 372.60301333 2179.07945776 371.65234375 2177.99609375 C359.52948166 2164.16011821 348.09366897 2149.85474751 336.98291016 2135.19726562 C335.63774656 2133.43088024 334.28191655 2131.67377361 332.91796875 2129.921875 C325.87541556 2120.86553843 319.15533561 2111.59328633 312.5 2102.25 C311.65646973 2101.06809082 311.65646973 2101.06809082 310.79589844 2099.86230469 C296.7747251 2080.17180484 283.7162529 2059.91774326 271.27246094 2039.19775391 C269.47254538 2036.20434063 267.66284539 2033.21701521 265.8515625 2030.23046875 C257.50234463 2016.43118907 249.4352203 2002.48507712 241.4705658 1988.46224976 C238.60841599 1983.42836546 235.70887841 1978.41664732 232.80419922 1973.40722656 C226.41206089 1962.38191656 220.15020878 1951.29194955 213.98193359 1940.13989258 C210.04831532 1933.02864669 206.07499515 1925.94200475 202.0625 1918.875 C190.17747353 1897.90962975 178.6307517 1876.75946991 167.25195312 1855.515625 C165.47042812 1852.19487828 163.68125742 1848.8783435 161.890625 1845.5625 C154.44915657 1831.76066725 147.1646286 1817.88715479 140.01245117 1803.93334961 C139.69424408 1803.31254517 139.37603699 1802.69174072 139.04818726 1802.05212402 C138.37338753 1800.73536246 137.69885864 1799.41846207 137.02456665 1798.10144043 C134.88019556 1793.91932742 132.71860815 1789.74664262 130.54370117 1785.58032227 C121.00372655 1767.29037204 111.7196173 1748.87690391 102.49536133 1730.42602539 C100.79109271 1727.01740675 99.08400724 1723.61022334 97.37426758 1720.2043457 C88.06132304 1701.65142461 78.86214897 1683.07496142 70.23413086 1664.19189453 C67.4518026 1658.1059469 64.54899148 1652.08139846 61.625 1646.0625 C42.19622136 1605.78172479 24.40826273 1564.64492508 7.5 1523.25 C7.24234863 1522.61930603 6.98469727 1521.98861206 6.71923828 1521.33880615 C-17.29608037 1462.47601663 -39.39409791 1402.75387352 -60.546875 1342.80859375 C-61.21707541 1340.91412726 -61.88732229 1339.01967721 -62.55761719 1337.12524414 C-63.80645539 1333.59482106 -65.04557969 1330.06121768 -66.27832031 1326.52514648 C-70.15197659 1315.50207461 -74.60126761 1304.85491431 -79.5 1294.25 C-80.1815918 1292.75315674 -80.1815918 1292.75315674 -80.87695312 1291.22607422 C-100.64600224 1246.3155095 -100.64600224 1246.3155095 -134.9375 1212.8125 C-139.46840092 1211.81791199 -144.05560766 1212.63535589 -148.51953125 1213.7578125 C-159.48988278 1216.48417205 -169.01787052 1211.39756796 -178.5 1206.25 C-182.39073126 1203.81603091 -185.96830689 1201.17573537 -189.5 1198.25 C-190.15097656 1197.73695312 -190.80195313 1197.22390625 -191.47265625 1196.6953125 C-218.17182906 1174.98389724 -231.75692113 1139.71750693 -235.48803711 1106.58911133 C-240.58351196 1056.02412194 -238.10398692 1006.01083845 -226.0625 956.5625 C-225.64810669 954.84268921 -225.64810669 954.84268921 -225.2253418 953.08813477 C-223.81802895 947.51855312 -222.19072238 942.3520757 -219.83984375 937.10546875 C-215.17853661 926.19980285 -216.45414574 918.56161542 -220.5625 907.6875 C-230.32230893 879.96239917 -234.47635315 851.26759431 -238.5 822.25 C-238.65529175 821.13757935 -238.65529175 821.13757935 -238.8137207 820.00268555 C-250.99679423 731.7456294 -234.95108244 634.9222629 -217.5 548.25 C-217.27022461 547.10160645 -217.04044922 545.95321289 -216.80371094 544.77001953 C-213.7936092 530.05371736 -209.70771018 515.65948522 -205.5 501.25 C-205.2486026 500.3888559 -204.9972052 499.52771179 -204.7381897 498.64047241 C-202.07102168 489.54266044 -199.30332609 480.4839912 -196.3203125 471.484375 C-195.9651355 470.40965942 -195.9651355 470.40965942 -195.6027832 469.31323242 C-194.0298521 464.63085211 -192.25833163 460.06656624 -190.375 455.5 C-187.51125649 448.52904541 -185.40730048 441.53140005 -183.5 434.25 C-185.08361328 433.12078125 -185.08361328 433.12078125 -186.69921875 431.96875 C-195.31861166 425.79612069 -203.8369702 419.51402194 -212.25 413.0625 C-225.55325656 402.81835315 -225.55325656 402.81835315 -239.4375 393.390625 C-243.13936353 390.80309794 -246.30411038 387.86593934 -249.5625 384.75 C-250.87708278 383.50465773 -252.19219788 382.25987716 -253.5078125 381.015625 C-254.16813477 380.38978516 -254.82845703 379.76394531 -255.50878906 379.11914062 C-257.44341711 377.3031141 -259.39909442 375.51402291 -261.3671875 373.734375 C-261.96909912 373.18845703 -262.57101074 372.64253906 -263.19116211 372.08007812 C-264.33679608 371.04351401 -265.48594285 370.01081637 -266.63891602 368.98242188 C-267.96343671 367.77827409 -269.23743174 366.51895562 -270.5 365.25 C-270.5 364.59 -270.5 363.93 -270.5 363.25 C-271.16 363.25 -271.82 363.25 -272.5 363.25 C-275.04675603 360.7900652 -277.22294962 357.95840418 -279.5 355.25 C-280.36238281 354.27417969 -281.22476562 353.29835938 -282.11328125 352.29296875 C-283.01353594 351.25826044 -283.91327814 350.22310602 -284.8125 349.1875 C-285.65425781 348.22714844 -286.49601562 347.26679688 -287.36328125 346.27734375 C-290.55292056 341.75820213 -291.55228872 337.87095019 -291.375 332.375 C-291.27277743 329.08944177 -291.87743126 327.17065854 -293.3984375 324.26953125 C-296.01841368 318.59388184 -296.64438701 312.98858867 -297.25 306.8125 C-297.36996338 305.63381348 -297.48992676 304.45512695 -297.61352539 303.24072266 C-304.21118694 232.81877442 -275.63965093 163.31424817 -231.21484375 109.69897461 C-230.78429687 109.18471924 -230.35375 108.67046387 -229.91015625 108.140625 C-228.00596439 105.85682926 -226.17246977 103.55432538 -224.375 101.1875 C-215.9892395 90.37475914 -206.92043558 80.16548613 -197.5 70.25 C-196.96536133 69.6813623 -196.43072266 69.11272461 -195.87988281 68.52685547 C-157.18920967 27.58513017 -97.07978575 -3.71821946 -40.32421875 -5.96875 C-36.40136072 -6.00429118 -32.73530314 -6.02636662 -28.8984375 -5.16796875 C-26.25043862 -4.52786409 -26.25043862 -4.52786409 -22.75 -5.8125 C-14.55546726 -8.05941876 -7.04195945 -3.91771929 0 0 Z M-51.3125 28.5625 C-52.25899414 28.91932861 -53.20548828 29.27615723 -54.18066406 29.64379883 C-57.29422874 30.8281754 -60.39746163 32.03705591 -63.5 33.25 C-64.56847168 33.66217773 -65.63694336 34.07435547 -66.73779297 34.49902344 C-90.88198063 43.85279066 -114.02562013 54.71114841 -135.5 69.25 C-136.24604492 69.74886719 -136.99208984 70.24773437 -137.76074219 70.76171875 C-147.41487401 77.24502869 -156.19585989 84.084519 -164.5 92.25 C-165.40927246 93.13075195 -165.40927246 93.13075195 -166.33691406 94.02929688 C-180.3189404 107.28774136 -180.3189404 107.28774136 -190.44921875 123.4609375 C-192.02308506 126.14060579 -194.28597926 127.66631577 -196.7109375 129.5546875 C-199.46776387 132.16705136 -201.02929397 135.33212324 -202.75 138.6875 C-204.34713293 141.02615893 -205.59708172 142.24399358 -207.76171875 143.984375 C-212.12526993 147.57963889 -215.13914335 151.8552212 -218.3125 156.5 C-218.9199707 157.38405518 -219.52744141 158.26811035 -220.15332031 159.17895508 C-244.39327266 194.95367103 -255.4598434 236.78145505 -261.8125 279.0625 C-262.00635788 280.34818878 -262.00635788 280.34818878 -262.20413208 281.65985107 C-263.02906534 287.18276438 -263.79024694 292.71117398 -264.5 298.25 C-264.66653076 299.4973291 -264.83306152 300.7446582 -265.00463867 302.02978516 C-265.76288997 308.93452043 -265.44429529 313.83079932 -262.1875 320 C-261.82068115 320.72606445 -261.4538623 321.45212891 -261.07592773 322.20019531 C-257.62499594 328.65972471 -253.38887418 332.90762189 -247.5 337.25 C-246.1893145 338.26031299 -244.88088859 339.27356127 -243.57421875 340.2890625 C-240.65714331 342.54622366 -237.72555489 344.78239101 -234.78125 347.00390625 C-231.06640916 349.81062 -227.39902727 352.67103365 -223.75 355.5625 C-209.62393264 366.71509316 -195.24297622 377.54315583 -180.7109375 388.16015625 C-178.11205793 390.05888904 -175.53227473 391.97717752 -172.9765625 393.93359375 C-171.50316406 395.04927734 -171.50316406 395.04927734 -170 396.1875 C-169.1853125 396.81527344 -168.370625 397.44304687 -167.53125 398.08984375 C-166.8609375 398.47269531 -166.190625 398.85554688 -165.5 399.25 C-162.01163531 398.08721177 -161.61049686 397.30368763 -159.5625 394.375 C-136.41446704 363.84853154 -92.59421592 344.36246707 -55.5 339.25 C-54.78505371 339.14993652 -54.07010742 339.04987305 -53.33349609 338.94677734 C-14.11507297 333.70940643 27.63038903 337.92973805 66.5 344.25 C67.7365332 344.44980469 68.97306641 344.64960938 70.24707031 344.85546875 C91.40379317 348.393203 112.20724768 353.48433295 133.01102448 358.66169739 C135.08771924 359.17822727 137.16489599 359.69278264 139.24212646 360.20715332 C204.91840619 376.50430917 204.91840619 376.50430917 220.5 389.25 C225.70703625 385.02384833 230.89083798 380.78845116 235.95703125 376.39428711 C244.7424079 368.81133938 254.10344474 362.04904099 263.5 355.25 C265.00546869 354.15400337 266.51068386 353.05765841 268.015625 351.9609375 C278.28668174 344.49272394 288.6703714 337.18991574 299.08984375 329.93066406 C303.23075359 327.04310092 307.36520861 324.14631462 311.5 321.25 C307.20640168 315.14399131 302.39826932 309.86727448 297.1015625 304.62109375 C296.30777191 303.82776138 295.51398132 303.03442902 294.69613647 302.21705627 C293.0260335 300.54995778 291.35351751 298.88527348 289.67871094 297.22290039 C287.13420329 294.6966373 284.59777724 292.16247603 282.0625 289.62695312 C280.43015791 287.99952803 278.79736038 286.3725596 277.1640625 284.74609375 C276.41484528 283.99798935 275.66562805 283.24988495 274.89370728 282.47911072 C270.79197762 278.4136859 266.59989238 274.51399117 262.22665405 270.74208069 C260.27121083 269.05229282 258.37589943 267.30874846 256.5 265.53125 C255.84 264.90863281 255.18 264.28601563 254.5 263.64453125 C253.16666667 262.38151042 251.83333333 261.11848958 250.5 259.85546875 C246.51621231 256.09732528 242.466461 252.43865793 238.33056641 248.84863281 C235.90915617 246.73401636 233.54879549 244.55635229 231.1875 242.375 C227.56476095 239.06663086 223.88307109 235.88987642 220.0625 232.8125 C216.06775746 229.59056683 212.25447891 226.24342389 208.5 222.75 C203.8675162 218.44003562 199.07877767 214.39938832 194.1484375 210.4296875 C191.52724881 208.27242601 189.00845719 206.03689 186.5 203.75 C183.08260628 200.63541332 179.5947765 197.6581338 176 194.75 C171.53579543 191.13850866 167.26997886 187.36339306 163.02734375 183.49609375 C160.43037607 181.18812402 157.76595987 178.99444137 155.0625 176.8125 C150.28715598 172.95058325 145.76332315 168.87325776 141.24609375 164.71484375 C138.58124834 162.32292703 135.85168175 160.05745116 133.0625 157.8125 C127.93749154 153.67588603 123.10436845 149.28680784 118.27734375 144.8125 C115.39037879 142.14885863 112.45076666 139.55851652 109.484375 136.984375 C105.44624593 133.4549866 101.48115205 129.84333815 97.5 126.25 C95.02115323 124.02177913 92.5419096 121.79400081 90.0625 119.56640625 C88.30530958 117.9779704 86.5556659 116.38115773 84.8125 114.77734375 C79.43184131 109.83233498 73.93686083 105.11951271 68.25 100.53125 C65.41900422 98.18281032 62.70616402 95.74090098 60 93.25 C55.60621452 89.21045182 51.08161176 85.40320381 46.4375 81.65625 C43.13646421 78.95221004 39.91240844 76.16882101 36.6875 73.375 C30.85956746 68.34018489 24.87078563 63.55226125 18.79296875 58.82421875 C13.31209189 54.5567502 7.97001089 50.11680433 2.61523438 45.69287109 C-2.05715653 41.83691667 -6.75911414 38.02142791 -11.5 34.25 C-12.34691406 33.57066406 -13.19382812 32.89132813 -14.06640625 32.19140625 C-25.33529898 23.86944311 -38.75544355 23.70902488 -51.3125 28.5625 Z M1038.01855469 125.9375 C1035.77301674 127.87833794 1033.4477803 129.7153038 1031.125 131.5625 C1024.88822584 136.62009086 1019.11776336 142.15645859 1013.29296875 147.67578125 C1010.32549834 150.48510372 1007.31175811 153.23072834 1004.25 155.9375 C999.98255386 159.73796971 995.94696823 163.7360257 991.95996094 167.8269043 C989.34844516 170.48605891 986.66779829 172.9952477 983.83642578 175.42016602 C979.40304447 179.28362156 975.22272619 183.36569695 971.0625 187.51953125 C969.91418701 188.66285164 969.91418701 188.66285164 968.74267578 189.82926941 C967.14143771 191.42548212 965.54151757 193.02301792 963.94287109 194.62182617 C961.48424406 197.07824177 959.01769604 199.5265204 956.55078125 201.97460938 C954.99169956 203.53076129 953.43308843 205.08738484 951.875 206.64453125 C951.13451416 207.37783157 950.39402832 208.1111319 949.63110352 208.86665344 C948.95619873 209.54463486 948.28129395 210.22261627 947.5859375 210.92114258 C946.9882959 211.51735916 946.3906543 212.11357574 945.77490234 212.7278595 C944.28596662 214.17462034 944.28596662 214.17462034 944.5 216.25 C945.45438965 216.53609131 946.4087793 216.82218262 947.39208984 217.11694336 C974.07810618 225.13117454 1000.35555678 233.49931165 1026.0625 244.3125 C1026.85597839 244.64607513 1027.64945679 244.97965027 1028.46697998 245.32333374 C1033.83163015 247.5867044 1039.17348746 249.89834421 1044.5 252.25 C1045.65976349 252.75935089 1045.65976349 252.75935089 1046.84295654 253.2789917 C1049.1403817 254.29529051 1051.42860349 255.32991055 1053.71484375 256.37109375 C1054.3959169 256.67169205 1055.07699005 256.97229034 1055.77870178 257.28199768 C1060.6574526 259.54167306 1064.71176095 262.41285375 1068.5 266.25 C1068.5 266.58 1068.5 266.91 1068.5 267.25 C1061.22311496 268.33552938 1054.85494939 268.04609058 1047.625 266.8125 C1046.52824951 266.63493164 1045.43149902 266.45736328 1044.30151367 266.27441406 C1031.54156227 264.16766025 1018.82766638 261.78459432 1006.10693359 259.45532227 C911.22562139 242.09278341 816.2899222 229.22626399 626.88720703 239.40429688 C622.26650771 240.1323853 617.64310121 240.84161889 613.01885986 241.54681396 C601.94031868 243.23790439 590.87538706 245.00052881 579.8237915 246.85986328 C578.36220746 247.10524571 576.90029594 247.34869334 575.43792725 247.58935547 C552.45046243 251.37349465 530.99972375 259.3074353 509.19354248 267.27038574 C505.74249207 268.525498 502.28470913 269.76132211 498.82649231 270.996521 C463.3794297 283.67038473 429.36896691 298.88239338 395.9375 316.1875 C394.95740967 316.69474609 393.97731934 317.20199219 392.9675293 317.72460938 C386.02155327 321.36113375 379.24335611 325.25138609 372.5 329.25 C373.09456237 332.32961442 374.0025187 334.2150301 375.9765625 336.640625 C376.47873291 337.26300049 376.98090332 337.88537598 377.49829102 338.52661133 C378.03510498 339.17782959 378.57191895 339.82904785 379.125 340.5 C379.67406006 341.17893311 380.22312012 341.85786621 380.78881836 342.55737305 C383.45004957 345.83034539 386.15792502 349.00168871 389.0625 352.0625 C415.24130701 381.65593401 431.05976357 425.35095018 429.5 464.25 C426.33820068 508.48689692 405.26373016 550.86024985 377.0078125 584.42285156 C374.70496811 587.21340976 372.54517258 590.10600183 370.375 593 C340.65177651 631.93935285 295.58359908 663.90629016 246.5 671.25 C218.19808037 674.55545699 173.89063825 666.54767483 149.73046875 650.88671875 C144.89926958 647.76020364 139.75092927 645.51504109 134.5 643.1875 C88.49273491 622.40042328 45.26367635 596.07849745 4.03320312 567.02636719 C0.43962984 564.5064328 -3.1859645 562.03461953 -6.8125 559.5625 C-14.78351365 554.10988833 -22.59281163 548.43878147 -30.40722656 542.76513672 C-33.42754008 540.57847483 -36.4626807 538.4129462 -39.5 536.25 C-51.14858663 527.94309638 -62.74319683 519.56486461 -74.25 511.0625 C-80.76724298 506.24714943 -87.32113274 501.49135556 -93.92578125 496.796875 C-98.04889647 493.86457215 -102.14959376 490.90143779 -106.25 487.9375 C-107.00732422 487.39029297 -107.76464844 486.84308594 -108.54492188 486.27929688 C-112.38186509 483.50618914 -116.21710369 480.73074535 -120.05078125 477.953125 C-130.1475273 470.64251448 -140.29999352 463.41582734 -150.5 456.25 C-154.50890991 458.25445496 -155.38034986 463.99111558 -156.77514648 468.02807617 C-159.45542127 476.24403469 -161.56160615 484.64321865 -163.75 493 C-164.03313049 494.07457458 -164.31626099 495.14914917 -164.60797119 496.25628662 C-173.54897528 530.26525654 -180.80863993 564.55086561 -186.5 599.25 C-186.6299939 600.04138367 -186.75998779 600.83276733 -186.8939209 601.64813232 C-194.16555873 646.18890425 -198.67253098 691.21889483 -201.5 736.25 C-201.57057617 737.33587402 -201.64115234 738.42174805 -201.71386719 739.54052734 C-205.50106698 799.2239908 -197.34427226 861.13716397 -176.5 917.25 C-173.31137259 916.53724254 -170.38841051 915.47367597 -167.359375 914.25390625 C-165.87630859 913.66319336 -165.87630859 913.66319336 -164.36328125 913.06054688 C-162.3025702 912.23445255 -160.24266052 911.40635612 -158.18359375 910.57617188 C-150.66698678 907.5880525 -143.72996117 904.83850194 -135.5 905.25 C-139.64835163 912.14613439 -144.13608085 918.470172 -149.31640625 924.62890625 C-151.27053731 926.97456268 -153.11112871 929.36731114 -154.9375 931.8125 C-158.31000422 936.19440804 -162.14733606 939.98835608 -166.09375 943.8515625 C-168.7523662 946.50154683 -171.21113858 949.26185264 -173.64453125 952.1171875 C-176.71806644 955.65013531 -179.95456309 959.03570229 -183.16796875 962.44140625 C-189.36711214 969.90737626 -190.62175314 976.58159192 -192.0625 986.0625 C-192.27390526 987.39583273 -192.48582664 988.72908371 -192.69824219 990.06225586 C-200.91911114 1042.46645995 -208.67793083 1109.99863914 -175.875 1155.375 C-175.43212646 1155.99036621 -174.98925293 1156.60573242 -174.53295898 1157.23974609 C-172.35936131 1160.14670719 -170.19510111 1162.62732175 -167.37109375 1164.91796875 C-164.83639295 1166.97676654 -163.12489311 1168.849303 -161.1875 1171.4375 C-158.00314831 1175.18795866 -155.41019358 1176.36494001 -150.61328125 1177.19140625 C-146.47698317 1177.30609104 -143.3526218 1175.7831276 -139.74609375 1173.87890625 C-138.81893555 1173.39212402 -137.89177734 1172.9053418 -136.93652344 1172.40380859 C-135.9468457 1171.87867676 -134.95716797 1171.35354492 -133.9375 1170.8125 C-132.91043945 1170.27189941 -131.88337891 1169.73129883 -130.82519531 1169.17431641 C-128.7189209 1168.06515087 -126.61361465 1166.95414488 -124.50927734 1165.84130859 C-121.81685403 1164.4175527 -119.1221216 1162.99835069 -116.42578125 1161.58203125 C-115.25619873 1160.96739014 -115.25619873 1160.96739014 -114.06298828 1160.34033203 C-112.51068852 1159.52469469 -110.9582782 1158.70926772 -109.40576172 1157.89404297 C-105.62027219 1155.90339078 -101.84336307 1153.89924678 -98.08203125 1151.86328125 C-86.06185826 1145.38886245 -73.75901532 1139.59819348 -61.34367371 1133.92512512 C-57.360118 1132.10483909 -53.38299994 1130.27133305 -49.41040039 1128.42726135 C17.13949384 1097.54337804 85.82853751 1072.16884995 154.77880859 1047.23455811 C158.41291005 1045.91969873 162.04613705 1044.60243285 165.67935181 1043.28512573 C214.3567858 1025.63707165 263.10183435 1008.17554379 311.84490967 990.70980835 C319.46584629 987.9790537 327.08652611 985.24758352 334.70703125 982.515625 C335.80237183 982.12294434 336.8977124 981.73026367 338.02624512 981.32568359 C341.35083446 980.13380127 344.67541832 978.94190368 348 977.75 C361.12079235 973.04603357 374.24169681 968.34238152 387.36328125 963.640625 C409.72635239 955.62708358 432.08736629 947.60780644 454.44428253 939.57710838 C457.93535897 938.32314917 461.42658249 937.06960271 464.91815186 935.8170166 C483.48959428 929.16188527 483.48959428 929.16188527 502.01171875 922.37109375 C514.53288449 917.72803844 526.99003006 913.37311099 539.91015625 909.94458008 C548.39313965 907.65940931 556.65430069 904.84812703 564.9375 901.9375 C589.43957548 893.35176694 614.30115853 885.87077903 639.12573242 878.28167725 C642.27891223 877.31759725 645.431508 876.35163107 648.58398438 875.38525391 C666.6868844 869.84218258 684.78869907 864.48366175 703.15625 859.875 C708.54857235 858.51531232 713.89133147 857.0150056 719.23681641 855.48291016 C751.70357706 846.23491395 784.89000287 839.56426056 817.8508873 832.33286285 C819.90161282 831.88287468 821.95222683 831.43238086 824.00283813 830.98187256 C842.49742054 826.92168864 861.01951741 823.03466326 879.61401367 819.45751953 C884.72269253 818.46343162 889.80216144 817.44152437 894.85157776 816.18060303 C909.30249122 812.57340938 923.85406596 809.91717398 938.52734375 807.390625 C941.17810999 806.92909915 943.82877644 806.46703213 946.47932434 806.0042572 C952.15630012 805.01406943 957.83403485 804.02834333 963.5123291 803.04574585 C972.60282406 801.47256262 981.69167683 799.89001675 990.78027344 798.3059082 C993.91628612 797.75939078 997.0523049 797.21290833 1000.18832397 796.66642761 C1000.97135261 796.52996694 1001.75438125 796.39350628 1002.56113803 796.25291044 C1008.17825909 795.27409117 1013.79559098 794.29648761 1019.41299438 793.31929016 C1041.38007576 789.4973218 1063.34230992 785.64846468 1085.30078125 781.77734375 C1086.04823396 781.64557857 1086.79568667 781.5138134 1087.56578946 781.37805533 C1094.32289189 780.18682615 1101.07992928 778.99522834 1107.83689594 777.80322933 C1294.67811811 744.84280005 1294.67811811 744.84280005 1566.6875 711 C1567.55600586 710.96052246 1568.42451172 710.92104492 1569.31933594 710.88037109 C1577.36839842 710.52334397 1585.41161407 710.23225229 1593.46888733 710.1758728 C1596.35295488 710.15569093 1599.23664649 710.11536435 1602.12051392 710.07653809 C1604.04022523 710.06309371 1605.96009122 710.08970598 1607.87963867 710.11816406 C1614.85258675 710.04559559 1619.50205785 709.15754011 1624.77490234 704.39624023 C1627.73717727 700.7107946 1628.64997299 696.95685289 1629.5 692.375 C1629.78423828 691.10462891 1629.78423828 691.10462891 1630.07421875 689.80859375 C1639.80382216 644.74879925 1619.81093937 603.9608489 1596.1484375 566.48046875 C1586.6012588 551.71434841 1575.87992993 537.59327373 1564.83984375 523.91601562 C1563.91704795 522.7685742 1563.00073833 521.61589619 1562.08984375 520.45898438 C1560.67851294 518.66886314 1559.24816866 516.895633 1557.8125 515.125 C1557.39718018 514.59213379 1556.98186035 514.05926758 1556.55395508 513.51025391 C1549.60060052 505.08711761 1538.00795404 503.00384364 1528 499.875 C1513.52853972 495.33304987 1499.3063186 490.37326771 1485.3125 484.5 C1478.92136839 481.83802248 1478.92136839 481.83802248 1472.5 479.25 C1472.5 478.59 1472.5 477.93 1472.5 477.25 C1479.79768096 474.84036927 1487.0403694 473.31755198 1494.625 472.125 C1495.65753906 471.95613281 1496.69007812 471.78726562 1497.75390625 471.61328125 C1503.32527322 470.71192634 1508.89482829 469.90864128 1514.5 469.25 C1506.61942695 400.32439094 1471.935934 334.54886554 1433.01416016 278.43896484 C1431.56692863 276.34675622 1430.13080143 274.24746984 1428.69921875 272.14453125 C1422.34573536 262.82075149 1415.78749395 253.65756432 1409.15283203 244.53222656 C1407.51838374 242.27538422 1405.89600099 240.0103759 1404.27734375 237.7421875 C1397.13026204 227.7427902 1389.73338612 217.97471633 1382.12841797 208.31933594 C1380.62347821 206.40691173 1379.12481261 204.48980592 1377.62890625 202.5703125 C1368.44924412 190.80629346 1359.07563368 179.19812338 1349.39160156 167.8449707 C1346.45479526 164.39837712 1343.59028279 160.90136462 1340.75 157.375 C1337.72890363 153.66044912 1334.59752347 150.23009106 1331.16015625 146.90234375 C1329.45615774 145.20636406 1327.88285917 143.44510304 1326.3125 141.625 C1316.10562049 129.81648938 1305.14650108 118.79003383 1294.0625 107.8125 C1291.22750624 105.00426649 1288.39597959 102.19260008 1285.56640625 99.37890625 C1284.61164146 98.43658897 1284.61164146 98.43658897 1283.6375885 97.47523499 C1280.88881871 94.74155909 1278.24423379 92.00801682 1275.79980469 88.99682617 C1273.83134326 86.64574767 1272.10555603 84.94463424 1269.63671875 83.171875 C1268.92314209 82.6557666 1268.20956543 82.1396582 1267.47436523 81.60791016 C1266.71969971 81.0772998 1265.96503418 80.54668945 1265.1875 80 C1264.39351807 79.43716309 1263.59953613 78.87432617 1262.78149414 78.29443359 C1260.36528489 76.59642685 1257.93675563 74.91836401 1255.5 73.25 C1254.4471582 72.52828613 1254.4471582 72.52828613 1253.37304688 71.79199219 C1239.10186111 62.13714052 1224.61423833 55.7937334 1207.5 53.25 C1206.69433594 53.11980469 1205.88867188 52.98960937 1205.05859375 52.85546875 C1142.65482016 44.23616301 1082.27282743 87.00887889 1038.01855469 125.9375 Z M333.40625 352.890625 C332.5493457 353.46055176 331.69244141 354.03047852 330.80957031 354.61767578 C329.88241211 355.23884277 328.95525391 355.86000977 328 356.5 C327.04963867 357.13534668 326.09927734 357.77069336 325.12011719 358.42529297 C317.17444802 363.75743018 309.34014656 369.23265148 301.55175781 374.79101562 C299.48584414 376.26006609 297.41234919 377.7177073 295.3359375 379.171875 C284.59807815 386.69648765 274.02153189 394.42623921 263.5 402.25 C262.42588867 403.04736572 262.42588867 403.04736572 261.33007812 403.86083984 C248.68679356 413.25492989 236.32427447 422.97174736 224.04370117 432.83325195 C219.9837361 436.08576855 215.88457544 439.2805247 211.75 442.4375 C205.8916861 446.91347527 200.18438444 451.55601344 194.5 456.25 C192.72924218 457.68759302 190.95840774 459.12509167 189.1875 460.5625 C184.28865376 464.56683509 179.48739734 468.67621744 174.69433594 472.80566406 C170.27730966 476.60377478 165.79063839 480.30665548 161.26953125 483.98046875 C158.1957835 486.49929448 155.15650866 489.05565001 152.125 491.625 C151.58020996 492.08583984 151.03541992 492.54667969 150.47412109 493.02148438 C147.72873925 495.34717456 144.99460958 497.6844779 142.27734375 500.04296875 C136.72191287 504.84406257 131.07444351 509.44260608 125.125 513.75 C124.28690796 514.36403687 124.28690796 514.36403687 123.43188477 514.99047852 C119.6020973 517.70815353 115.83845914 519.53658323 111.5 521.25 C112.51965272 514.38744924 114.65760014 509.75519262 118.8125 504.25 C119.34157959 503.52578857 119.87065918 502.80157715 120.41577148 502.05541992 C122.09273979 499.77307813 123.79268555 497.50970952 125.5 495.25 C126.04720703 494.52119629 126.59441406 493.79239258 127.15820312 493.04150391 C130.89386819 488.07582993 134.68323662 483.15352211 138.5 478.25 C138.99419434 477.61400879 139.48838867 476.97801758 139.99755859 476.32275391 C143.14264806 472.28057872 146.31092742 468.2575513 149.5 464.25 C150.25796875 463.29609375 151.0159375 462.3421875 151.796875 461.359375 C156.98373368 454.92178444 162.47387356 448.80670117 168.1015625 442.75732422 C170.37299898 440.30902659 172.62229951 437.84052829 174.875 435.375 C181.0506484 428.63630406 187.27353286 421.94171985 193.5 415.25 C190.63978337 412.38978337 187.21052592 411.87504035 183.40234375 410.8515625 C182.5621167 410.62062393 181.72188965 410.38968536 180.85620117 410.15174866 C178.05213738 409.38459042 175.24514174 408.62895206 172.4375 407.875 C171.4680545 407.61288727 170.49860901 407.35077454 169.49978638 407.08071899 C134.46608028 397.61872725 99.24385816 388.61559883 63.5 382.25 C61.76943359 381.9415918 61.76943359 381.9415918 60.00390625 381.62695312 C5.93933188 372.25870424 -59.53647234 366.0602244 -107.5 398.25 C-116.73236026 404.88612522 -125.48032326 412.25529557 -132.5 421.25 C-128.66490359 424.36421363 -124.73617389 427.33339045 -120.75 430.25 C-119.77317261 430.96567139 -119.77317261 430.96567139 -118.77661133 431.69580078 C-113.24337939 435.73539552 -107.65228101 439.68957321 -102.04760742 443.62915039 C-94.57039172 448.89027013 -87.16495515 454.24880187 -79.76171875 459.61328125 C-77.52060267 461.23509064 -75.27648685 462.85265132 -73.03125 464.46875 C-64.51748863 470.59921677 -56.04638098 476.78340421 -47.60791016 483.01708984 C-40.01642437 488.61940433 -32.36955896 494.14293548 -24.71191406 499.65429688 C-22.53067673 501.22786942 -20.35443323 502.80809594 -18.1796875 504.390625 C-7.05047304 512.48050578 4.21976119 520.35601474 15.53125 528.18847656 C18.48512119 530.23966803 21.43117764 532.30160548 24.375 534.3671875 C70.99361577 567.04513802 120.25858477 596.44755817 172.5 619.25 C172.47905273 618.27877197 172.45810547 617.30754395 172.43652344 616.30688477 C172.36271845 612.61482193 172.31770471 608.92282002 172.28027344 605.23022461 C172.26047084 603.64873199 172.23342109 602.0673093 172.19824219 600.48608398 C171.83809659 583.85053523 175.37503437 569.4743069 180.875 553.8125 C181.2963623 552.60384277 181.71772461 551.39518555 182.15185547 550.14990234 C185.69420905 540.11331433 189.60116113 530.22699975 193.625 520.375 C193.90833191 519.67569366 194.19166382 518.97638733 194.48358154 518.25588989 C199.7444825 505.32327067 205.47475872 492.33155515 214.1875 481.3125 C214.68733398 480.66265137 215.18716797 480.01280273 215.70214844 479.34326172 C220.53570032 473.09979901 225.52028494 466.97324704 230.53515625 460.875 C232.96968354 457.9126973 235.33565967 454.90352678 237.6875 451.875 C251.55033791 434.71013088 270.21561159 422.96311168 288.375 410.8125 C289.06997589 410.34614136 289.76495178 409.87978271 290.48098755 409.39929199 C299.61481205 403.2839278 308.85029374 397.52148431 318.5 392.25 C319.27666016 391.82412598 320.05332031 391.39825195 320.85351562 390.95947266 C325.38005273 388.58226634 329.94293641 387.00848997 334.875 385.6875 C335.63796387 385.47843018 336.40092773 385.26936035 337.18701172 385.05395508 C345.5216248 382.85073747 353.9767888 381.48919028 362.5 380.25 C361.736875 379.38375 360.97375 378.5175 360.1875 377.625 C353.03272882 369.28341843 346.38979854 360.47341913 339.7421875 351.7265625 C339.33226562 351.23929687 338.92234375 350.75203125 338.5 350.25 C336.58383044 350.25 334.9419057 351.86836134 333.40625 352.890625 Z M266.40527344 477.0612793 C265.06552058 478.600347 263.68962839 480.10833 262.28881836 481.59204102 C255.93280201 488.33837798 250.67848378 495.41538304 245.625 503.1875 C244.84292565 504.3774322 244.06061416 505.56720858 243.27807617 506.75683594 C236.73206426 516.74711501 230.32116418 526.8168873 224.5 537.25 C224.16500488 537.84973633 223.83000977 538.44947266 223.48486328 539.06738281 C218.60994629 548.03971808 215.49223032 557.73068129 212.25 567.375 C212.03494812 568.01226013 211.81989624 568.64952026 211.59832764 569.30609131 C205.25175585 585.92306615 205.25175585 585.92306615 206.0625 603.0625 C206.45695312 604.31546875 206.85140625 605.5684375 207.2578125 606.859375 C210.56666045 615.89107316 214.7058224 623.20376321 223.26171875 628.21484375 C232.19262413 632.34519266 242.09100442 631.94079837 251.4375 629.625 C252.16767334 629.44606201 252.89784668 629.26712402 253.65014648 629.08276367 C289.68326635 619.93265901 318.78657055 596.13346122 341.5 567.25 C342.44187457 566.09590984 343.38601464 564.94366608 344.33203125 563.79296875 C362.46406914 541.64595862 377.46326672 517.30978319 385.9375 489.8125 C386.18467773 489.02053223 386.43185547 488.22856445 386.68652344 487.41259766 C389.64980891 477.25668703 389.71958029 466.8248163 389.8125 456.3125 C389.84150391 455.22259766 389.87050781 454.13269531 389.90039062 453.00976562 C389.97759928 443.01421486 388.26698712 433.04675485 381.05859375 425.640625 C374.04748687 419.38510107 365.74287702 416.83544135 356.5 416.25 C355.75621094 416.19714844 355.01242187 416.14429688 354.24609375 416.08984375 C323.76130883 414.90346464 284.54558524 455.6172109 266.40527344 477.0612793 Z M1535.50585938 750.31005859 C1532.00366286 750.40794272 1528.50184374 750.51522433 1525 750.625 C1523.82824219 750.6559375 1522.65648438 750.686875 1521.44921875 750.71875 C1503.83194052 751.28160234 1486.36680999 753.23783653 1468.93979073 755.81069374 C1466.00151475 756.24420511 1463.06219877 756.6699881 1460.12254333 757.09403992 C1455.90581204 757.70269135 1451.68942783 758.31365854 1447.47332764 758.92666626 C1416.18053736 763.47198427 1384.89730958 767.87259041 1353.4643898 771.3321228 C1298.99737704 777.33768373 1245.31570624 787.1035054 1191.61197662 797.8282547 C1189.56553778 798.23691261 1187.51895042 798.64482016 1185.47235107 799.05267334 C1106.09848827 814.90191692 1028.39554043 836.90438284 950.94671631 860.21417236 C946.76197559 861.47179548 942.57506313 862.72205155 938.38780212 863.97125244 C919.7992598 869.51873121 901.27970525 875.24870188 882.8125 881.1875 C851.18728935 891.35510497 819.40801962 901.02538816 787.60368347 910.61554718 C785.57374499 911.22775915 783.54399868 911.84060464 781.51428223 912.45355225 C748.74267858 922.34025989 715.89083205 931.2075507 682.51171112 938.79240417 C680.37641106 939.27811228 678.24142405 939.76517753 676.10650635 940.25256348 C642.89107314 947.83512213 609.66497745 955.36809361 576.32546997 962.38793945 C484.99764197 981.63703417 393.12549118 1002.69548091 218.59515381 1059.52056885 C216.56812669 1060.22628158 214.53956131 1060.92733929 212.51025391 1061.62646484 C178.50024815 1073.3491609 145.1414779 1086.49942639 112.21072388 1100.97317505 C95.53597111 1108.29461294 78.76179861 1115.27619747 61.8125 1121.9375 C60.72466217 1122.36533783 59.63682434 1122.79317566 58.51602173 1123.23397827 C53.04796668 1125.3827028 47.57762469 1127.52553236 42.10595703 1129.66503906 C2.06206907 1144.89738336 2.06206907 1144.89738336 -36.78466797 1162.87011719 C-39.80011544 1164.40251326 -42.85098413 1165.84606541 -45.91015625 1167.2890625 C-48.02418025 1168.31618099 -50.13748594 1169.34477951 -52.25 1170.375 C-53.21059326 1170.81779297 -54.17118652 1171.26058594 -55.16088867 1171.71679688 C-62.0954715 1175.19506768 -64.85294253 1179.01648613 -67.5 1186.25 C-67.88929688 1187.30832031 -68.27859375 1188.36664062 -68.6796875 1189.45703125 C-68.90914062 1190.31683594 -69.13859375 1191.17664062 -69.375 1192.0625 C-69.61992187 1192.93519531 -69.86484375 1193.80789063 -70.1171875 1194.70703125 C-70.75595419 1198.9502671 -69.42836149 1202.72094769 -68.05151367 1206.71826172 C-67.75493866 1207.58371109 -67.45836365 1208.44916046 -67.15280151 1209.34083557 C-66.8278067 1210.27765671 -66.50281189 1211.21447784 -66.16796875 1212.1796875 C-65.82476593 1213.17592636 -65.48156311 1214.17216522 -65.12796021 1215.19859314 C-63.98540153 1218.50888692 -62.8369982 1221.81710995 -61.6875 1225.125 C-61.28840424 1226.27600189 -60.88930847 1227.42700378 -60.4781189 1228.61288452 C-52.37883515 1251.952715 -43.97902454 1275.1786981 -35.47984314 1298.37539673 C-32.4896956 1306.53730882 -29.51410928 1314.70438832 -26.5466156 1322.87455368 C4.14299477 1407.36173575 35.74934671 1491.68101859 104 1642.375 C104.30533661 1643.02428467 104.61067322 1643.67356934 104.92526245 1644.3425293 C118.08260078 1672.29334703 131.78250471 1699.98651415 145.61401367 1727.60839844 C147.57181622 1731.518228 149.5258951 1735.42990602 151.4791069 1739.34203053 C159.00689734 1754.41620063 166.55964078 1769.46602639 174.48574829 1784.33587646 C176.1283644 1787.43586645 177.7334815 1790.55489028 179.3359375 1793.67578125 C185.41229675 1805.49997978 191.53344026 1817.28682164 197.94311523 1828.93505859 C201.67656516 1835.72100302 205.33424599 1842.54554624 208.97515869 1849.38143921 C214.42186903 1859.6034778 219.98882215 1869.74608114 225.72631836 1879.80834961 C229.57647509 1886.57398724 233.31136745 1893.39510232 237 1900.25 C243.33497072 1912.01195119 249.88203927 1923.64539659 256.5 1935.25 C256.99322754 1936.11657227 257.48645508 1936.98314453 257.99462891 1937.87597656 C265.16314369 1950.47054243 272.39648714 1963.02754407 279.6484375 1975.57421875 C282.18582826 1979.96625111 284.71127834 1984.36480378 287.2265625 1988.76953125 C296.00966255 2004.12608098 305.11910684 2019.25143776 314.5 2034.25 C315.11794434 2035.24080566 315.73588867 2036.23161133 316.37255859 2037.25244141 C323.60343151 2048.82454409 331.07316301 2060.15216187 339.04980469 2071.22314453 C340.50055413 2073.25077448 341.92926043 2075.2921772 343.3515625 2077.33984375 C357.78277081 2098.08577527 373.4640661 2117.95000429 389.453125 2137.51171875 C391.25060025 2139.71102811 393.03115626 2141.91936529 394.796875 2144.14453125 C405.07753487 2157.03400519 416.81147896 2168.65066078 428.4375 2180.3125 C428.92768616 2180.80536499 429.41787231 2181.29822998 429.9229126 2181.80603027 C435.60112266 2187.50779742 441.36084985 2193.04348496 447.5 2198.25 C448.58269445 2199.18803715 449.66475249 2200.12680949 450.74609375 2201.06640625 C469.95084429 2217.62665637 489.77513273 2233.00862178 510.58984375 2247.5 C513.03586978 2249.20550783 515.44233229 2250.94584789 517.81640625 2252.75 C526.49968645 2259.18366943 535.35263772 2262.82035436 545.5 2266.25 C546.56831055 2266.61125977 547.63662109 2266.97251953 548.73730469 2267.34472656 C556.95663548 2270.09682748 565.19536848 2272.7667576 573.5 2275.25 C574.15143982 2275.4566629 574.80287964 2275.66332581 575.47406006 2275.87625122 C590.42455583 2280.58700078 605.6542942 2281.9167159 621.2020874 2283.25811768 C623.90222296 2283.49463001 626.6008665 2283.74607897 629.29959106 2283.99810791 C658.82173868 2286.7525098 688.36012372 2288.51872467 718 2289.375 C718.69710083 2289.39538582 719.39420166 2289.41577164 720.11242676 2289.43677521 C730.5741827 2289.74194946 741.03652956 2290.01100711 751.5 2290.25 C752.6329248 2290.27618408 753.76584961 2290.30236816 754.93310547 2290.3293457 C788.61865055 2291.07637311 821.93863772 2289.07106289 855.5 2286.25 C857.40379628 2286.09343742 859.30760416 2285.93701589 861.21142578 2285.78076172 C922.77113885 2280.66593196 983.90759714 2269.8004693 1044.5625 2258.3125 C1045.76471191 2258.08534302 1046.96692383 2257.85818604 1048.20556641 2257.62414551 C1055.64671001 2256.21279661 1063.0784033 2254.76082712 1070.5 2253.25 C1071.28021515 2253.09280487 1072.0604303 2252.93560974 1072.86428833 2252.77365112 C1086.20116759 2250.03749026 1098.9572605 2245.61593812 1111.8125 2241.1875 C1113.52883636 2240.6001709 1113.52883636 2240.6001709 1115.27984619 2240.00097656 C1141.16286837 2231.14234882 1166.87680484 2221.83229234 1192.5 2212.25 C1193.54319397 2211.85987732 1194.58638794 2211.46975464 1195.66119385 2211.06781006 C1261.33469968 2186.47285497 1327.12845472 2158.93569964 1387.1015625 2122.31542969 C1390.69283507 2120.13280283 1394.29690376 2117.97285479 1397.90625 2115.8203125 C1431.15262077 2095.98810453 1463.73877466 2075.2365371 1495.30322266 2052.80712891 C1497.58541249 2051.18945756 1499.87562954 2049.58372037 1502.16796875 2047.98046875 C1503.67452283 2046.92454145 1505.18103509 2045.8685545 1506.6875 2044.8125 C1507.34685547 2044.35214355 1508.00621094 2043.89178711 1508.68554688 2043.41748047 C1510.63616942 2042.04480179 1512.57094744 2040.6528166 1514.5 2039.25 C1515.17562988 2038.76418457 1515.85125977 2038.27836914 1516.54736328 2037.77783203 C1523.02259032 2032.95105755 1528.69085123 2027.36415938 1534.36572266 2021.64501953 C1535.99036165 2020.00970171 1537.62536647 2018.3853062 1539.26171875 2016.76171875 C1545.04545543 2010.98443799 1550.4506841 2005.11562738 1555.49462891 1998.671875 C1557.63420734 1996.08791858 1559.94839424 1993.81364046 1562.375 1991.5 C1569.27844884 1983.96799641 1572.93845783 1974.66538593 1577.06591797 1965.42529297 C1578.48420288 1962.28497741 1579.95311877 1959.17408407 1581.44140625 1956.06640625 C1594.54309861 1928.57513846 1604.65239144 1900.07198194 1613.90881348 1871.09661865 C1614.42663428 1869.47916372 1614.95060468 1867.8636802 1615.47558594 1866.24853516 C1631.62935783 1816.12237255 1636.65740689 1761.22072704 1640.6875 1708.9375 C1640.7594458 1708.00446045 1640.8313916 1707.0714209 1640.90551758 1706.11010742 C1642.5808342 1682.24451636 1642.66381881 1658.37657454 1642.66725707 1634.46685576 C1642.66797976 1631.62465908 1642.67013695 1628.78246691 1642.67275429 1625.94027138 C1642.68197786 1615.88685435 1642.68609549 1605.83345041 1642.68530273 1595.7800293 C1642.68477664 1587.64296457 1642.69167457 1579.50594875 1642.70581055 1571.36889648 C1642.81912341 1504.55139914 1641.96956307 1437.81837287 1638.74845123 1371.06939316 C1638.61919436 1368.37916715 1638.49263406 1365.68882423 1638.36663818 1362.9984436 C1634.5799562 1282.29835311 1629.18369832 1201.57796089 1575.28466797 835.29394531 C1575.14138376 834.48882004 1574.99809956 833.68369476 1574.8504734 832.85417175 C1574.28872586 829.69897 1573.72682747 826.5437961 1573.16353226 823.38887024 C1571.61836297 814.72855306 1570.12354883 806.06533195 1568.75245667 797.37532043 C1568.10642265 793.29303165 1567.43072778 789.21599709 1566.74996948 785.13937378 C1566.46588825 783.38484768 1566.19701881 781.62776595 1565.94607544 779.86819458 C1564.10412203 766.95869887 1559.8914955 760.58757707 1549.44921875 752.70117188 C1544.82094425 749.70972616 1540.80377829 750.20378918 1535.50585938 750.31005859 Z " fill="#FFF6F7" transform="translate(545.5,81.75)"/>
<path d="M0 0 C1.22456909 -0.00855011 1.22456909 -0.00855011 2.47387695 -0.01727295 C4.19497405 -0.02666508 5.91608867 -0.03323371 7.63720703 -0.03710938 C10.21550629 -0.04674608 12.79298317 -0.07779623 15.37109375 -0.109375 C32.42178946 -0.22404992 47.36963606 3.15109023 63.4375 8.640625 C64.21512695 8.9032312 64.99275391 9.1658374 65.79394531 9.43640137 C80.57649726 14.43881334 94.99425032 20.10892483 109.30004883 26.35479736 C111.35295101 27.24791391 113.40943362 28.13234787 115.46679688 29.01513672 C166.08305486 50.75849491 166.08305486 50.75849491 183.25 62.203125 C189.40370442 63.52270918 193.51966642 62.88592748 199.375 60.578125 C201.16068434 59.91977183 202.94722013 59.26372576 204.734375 58.609375 C205.75208984 58.23167969 206.76980469 57.85398437 207.81835938 57.46484375 C308.10003425 20.59406289 308.10003425 20.59406289 351.1875 20.890625 C352.07445557 20.89553955 352.96141113 20.9004541 353.87524414 20.90551758 C368.12851204 21.14951611 382.09509199 23.57373717 396 26.578125 C396.88034912 26.76270264 397.76069824 26.94728027 398.66772461 27.13745117 C413.14328272 30.45995871 425.53053996 39.20470835 434.25 51.203125 C441.89975887 63.72874369 446.62753804 78.33573913 451.25 92.203125 C453.17585938 92.09484375 453.17585938 92.09484375 455.140625 91.984375 C516.1386762 88.70622467 567.90621643 99.78983701 614.25 141.203125 C615.270539 142.10059522 616.29136467 142.99773959 617.3125 143.89453125 C622.7212763 148.7080482 627.65876336 153.61181701 632.25 159.203125 C633.16767958 160.28540151 634.08567836 161.3674074 635.00390625 162.44921875 C641.54792683 170.24378746 647.63657442 178.3227422 653.5 186.640625 C654.13671631 187.53209229 654.77343262 188.42355957 655.42944336 189.34204102 C665.74135614 204.18074694 672.25503738 219.5667728 677.5625 236.765625 C678.0173175 238.21156036 678.0173175 238.21156036 678.48132324 239.68670654 C682.75838011 253.313221 686.30495842 266.65879824 687.94335938 280.87988281 C688.49099222 285.02898647 689.40260074 289.10683637 690.25 293.203125 C692.22875892 302.98939982 693.44319126 312.85800858 694.625 322.765625 C694.73327118 323.67260132 694.84154236 324.57957764 694.95309448 325.51403809 C697.33261933 345.6528639 699.05013092 365.82855365 700.50756836 386.0532074 C700.91847922 391.75436137 701.34578503 397.45331116 701.81005859 403.15039062 C706.95152539 466.34714397 706.71441279 529.90883521 703.25 593.203125 C703.18447937 594.41460205 703.11895874 595.6260791 703.05145264 596.87426758 C693.83916534 766.21182656 693.83916534 766.21182656 667.25 876.203125 C667.03496826 876.86739502 666.81993652 877.53166504 666.59838867 878.21606445 C663.12707562 888.92383283 659.55943779 899.59772974 655.91796875 910.2487793 C655.32236712 911.99139298 654.72936297 913.73489394 654.13671875 915.47851562 C637.51225348 964.0603693 613.16496708 1023.90353782 568.0625 1052.203125 C565.74971567 1053.84777164 564.16031145 1055.28982743 562.25 1057.328125 C552.03940622 1067.784488 537.16384302 1077.28876601 523.3125 1082.015625 C516.81241803 1084.41665361 511.49667352 1088.82907026 505.9296875 1092.85546875 C475.03704122 1115.13644815 440.79681494 1131.47215087 406.25 1147.203125 C405.53283813 1147.5301239 404.81567627 1147.8571228 404.07678223 1148.19403076 C348.32251525 1173.60888781 292.27959926 1196.50275133 234.25 1216.203125 C232.66572205 1216.74217468 232.66572205 1216.74217468 231.04943848 1217.29211426 C180.57097372 1234.46650689 180.57097372 1234.46650689 158.25 1240.203125 C157.20279785 1240.47318359 156.1555957 1240.74324219 155.07666016 1241.02148438 C55.48582881 1266.26015405 -49.14565166 1280.65124774 -168.6875 1285.453125 C-169.45982971 1285.45579376 -170.23215942 1285.45846252 -171.02789307 1285.46121216 C-186.22463042 1285.48572988 -201.29884894 1284.49830837 -216.43334961 1283.18261719 C-217.6909182 1283.076549 -217.6909182 1283.076549 -218.97389221 1282.96833801 C-220.53349768 1282.83542875 -222.09253703 1282.69559903 -223.65074158 1282.54716492 C-228.20217632 1282.15753613 -232.2544141 1282.45872819 -236.75 1283.203125 C-251.72228873 1284.09788329 -267.1405106 1283.6069427 -281.69360352 1279.6784668 C-283.93740199 1279.15980651 -286.05696259 1278.97927237 -288.35546875 1278.84375 C-324.54331952 1276.38612661 -355.48535163 1257.61899066 -384.75 1237.203125 C-385.37696777 1236.7690332 -386.00393555 1236.33494141 -386.64990234 1235.88769531 C-399.50861293 1226.96308477 -411.7154592 1217.20365891 -423.75 1207.203125 C-424.25885742 1206.78063477 -424.76771484 1206.35814453 -425.29199219 1205.92285156 C-432.33553777 1200.06108019 -439.1990462 1194.04301569 -445.921875 1187.81640625 C-448.49061923 1185.44280143 -451.08162848 1183.09830031 -453.6875 1180.765625 C-476.68421179 1160.09816215 -476.68421179 1160.09816215 -485.953125 1149.27734375 C-487.9246243 1147.00154782 -489.96134395 1144.79389833 -492 1142.578125 C-496.04861363 1138.09793326 -499.76481631 1133.42321315 -503.45654297 1128.65112305 C-506.72364688 1124.44967479 -510.12572082 1120.39979751 -513.625 1116.390625 C-519.80285669 1109.28062134 -525.50625109 1101.84548425 -531.16064453 1094.31591797 C-532.68133815 1092.29439991 -534.21210146 1090.28096789 -535.74609375 1088.26953125 C-543.71194383 1077.78835805 -551.27160404 1067.03582194 -558.75 1056.203125 C-559.12834991 1055.65545471 -559.50669983 1055.10778442 -559.89651489 1054.54351807 C-568.02491132 1042.77121894 -576.05841009 1030.9352114 -584.0625 1019.078125 C-584.70240875 1018.13046265 -585.3423175 1017.18280029 -586.00161743 1016.2064209 C-594.67968748 1003.34577713 -603.20513698 990.41965626 -611.43994141 977.27001953 C-613.4456324 974.10561775 -615.53053325 970.99670203 -617.625 967.890625 C-641.36495841 932.61205764 -663.65303581 896.1242819 -684.75 859.203125 C-685.33475098 858.18460449 -685.91950195 857.16608398 -686.52197266 856.11669922 C-705.2487461 823.34610862 -721.96820709 789.325162 -737.25073242 754.82293701 C-739.15844456 750.5172557 -741.10220795 746.22954144 -743.06640625 741.94921875 C-756.96225784 711.63493628 -769.83703767 680.85476781 -782.52734375 650.01953125 C-790.19876079 631.38538767 -797.9753909 612.79439361 -805.75 594.203125 C-806.18471619 593.1635968 -806.61943237 592.1240686 -807.06732178 591.05303955 C-809.6333311 584.91968923 -812.20479358 578.78866391 -814.78292847 572.66040039 C-815.57965596 570.76540321 -816.37521374 568.8699137 -817.16946411 566.97387695 C-820.97679636 557.8888269 -824.84956852 548.86336811 -829.09375 539.97265625 C-831.69947319 534.51385534 -834.1750859 529.10243685 -836 523.328125 C-836.23541504 522.59239258 -836.47083008 521.85666016 -836.71337891 521.09863281 C-842.07279899 503.81843036 -848.16142889 481.15440772 -839.421875 464.1171875 C-838.87015625 463.15554688 -838.3184375 462.19390625 -837.75 461.203125 C-837.08495761 459.92112373 -836.42376159 458.63712264 -835.765625 457.3515625 C-831.66621709 449.52685478 -827.1174009 442.79192262 -821.29296875 436.13671875 C-818.60618964 433.03722396 -816.10433668 429.84329098 -813.625 426.578125 C-809.40873027 421.05587362 -805.1542596 415.5772757 -800.75 410.203125 C-800.12883301 409.43645508 -800.12883301 409.43645508 -799.49511719 408.65429688 C-789.11546968 395.90366389 -777.36939766 384.67745453 -764.51171875 374.43359375 C-761.25531444 371.80359819 -758.09994179 369.06960226 -754.9375 366.328125 C-683.99644094 305.20062731 -603.7243107 276.63675795 -391.39479065 270.98074341 C-323.84924698 276.20543801 -257.15578676 286.60833549 -190.83828735 300.23736954 C-188.88498452 300.6385742 -186.93138444 301.03833077 -184.9777832 301.43807983 C-181.34049103 302.18491307 -177.70510165 302.94030778 -174.0703125 303.69921875 C-172.98110504 303.92281067 -171.89189758 304.14640259 -170.76968384 304.37677002 C-169.76819305 304.58815613 -168.76670227 304.79954224 -167.73486328 305.01733398 C-166.42885666 305.28972145 -166.42885666 305.28972145 -165.09646606 305.56761169 C-162.77252917 306.19702323 -160.87781186 307.09468865 -158.75 308.203125 C-156.33114205 308.8704701 -156.33114205 308.8704701 -153.75 308.203125 C-151.56608789 306.25129074 -149.76101314 304.41047008 -147.875 302.203125 C-147.34543701 301.60588623 -146.81587402 301.00864746 -146.27026367 300.39331055 C-144.75037278 298.67421178 -143.24855549 296.94081728 -141.75 295.203125 C-141.08355469 294.44644531 -140.41710938 293.68976563 -139.73046875 292.91015625 C-137.48839982 290.363544 -135.26491144 287.80112963 -133.05102539 285.22998047 C-128.16693311 279.673799 -123.02941682 274.4405941 -117.7578125 269.25390625 C-117.04048447 268.54677994 -116.32315643 267.83965363 -115.58409119 267.11109924 C-112.58906692 264.16154597 -109.59211671 261.21419559 -106.58105469 258.28100586 C-104.35994496 256.11444719 -102.15180886 253.93533272 -99.9453125 251.75390625 C-98.92813644 250.77240349 -98.92813644 250.77240349 -97.89041138 249.77107239 C-92.89517994 244.80376619 -89.96481866 240.57255254 -89.5012207 233.30102539 C-89.54324934 231.88370597 -89.60228742 230.46681776 -89.67578125 229.05078125 C-89.70222214 228.27415634 -89.72866302 227.49753143 -89.75590515 226.69737244 C-89.84294453 224.21927826 -89.95161267 221.74275585 -90.0625 219.265625 C-90.19040319 216.04841807 -90.30964447 212.83093306 -90.42578125 209.61328125 C-90.45597855 208.78529022 -90.48617584 207.95729919 -90.51728821 207.10421753 C-91.16075503 188.21115133 -90.71035164 169.3347873 -89.9375 150.453125 C-89.89398407 149.36837891 -89.85046814 148.28363281 -89.80563354 147.16601562 C-89.1196589 130.40328978 -88.04449238 113.83144623 -85.75 97.203125 C-85.54550614 95.54688324 -85.34107539 93.89063369 -85.13671875 92.234375 C-81.63912148 66.07146336 -67.61497349 30.00352636 -46.57421875 13.0625 C-37.30111632 6.95738692 -27.91666057 2.28323354 -16.75 1.203125 C-15.55632813 1.03707764 -14.36265625 0.87103027 -13.1328125 0.69995117 C-8.7471214 0.15034097 -4.4163007 0.02464401 0 0 Z M-10.75 44.203125 C-11.5853125 44.64914062 -12.420625 45.09515625 -13.28125 45.5546875 C-30.48872545 55.06128659 -37.92201655 68.96425912 -43.296875 87.234375 C-45.13783357 94.19023564 -46.00950625 101.25977677 -46.875 108.390625 C-46.96093414 109.08131073 -47.04686829 109.77199646 -47.13540649 110.48361206 C-48.26833786 119.59675642 -49.35798803 128.68072809 -49.66894531 137.86523438 C-49.76984561 140.77553945 -49.89851057 143.68437798 -50.0234375 146.59375 C-51.11381095 173.57275641 -51.12069563 200.53900239 -50.01806641 227.51708984 C-49.96956543 228.77730957 -49.92106445 230.0375293 -49.87109375 231.3359375 C-49.8239624 232.44855957 -49.77683105 233.56118164 -49.72827148 234.70751953 C-49.75 237.203125 -49.75 237.203125 -50.75 238.203125 C-51.07438165 240.07274287 -51.35925703 241.94927559 -51.625 243.828125 C-52.41045699 248.71412951 -53.52246789 252.74806079 -55.75 257.203125 C-56.07226562 257.8940625 -56.39453125 258.585 -56.7265625 259.296875 C-59.33494057 264.79238911 -59.33494057 264.79238911 -61.25 266.6875 C-62.84011884 268.12509313 -62.84011884 268.12509313 -63.6242218 270.06512451 C-64.89218338 272.47314989 -66.32853934 274.01567478 -68.26245117 275.92675781 C-68.98047409 276.64140198 -69.69849701 277.35604614 -70.4382782 278.09234619 C-71.21532608 278.85593445 -71.99237396 279.61952271 -72.79296875 280.40625 C-73.5947908 281.20287048 -74.39661285 281.99949097 -75.22273254 282.82025146 C-77.78962418 285.3693325 -80.36307558 287.9116536 -82.9375 290.453125 C-85.49324392 292.98112319 -88.0474739 295.51060333 -90.59870911 298.04315186 C-92.1853202 299.61764945 -93.77459594 301.18946814 -95.36698914 302.75811768 C-100.05045242 307.39989661 -104.45909348 312.19821625 -108.75 317.203125 C-110.20445517 318.81080873 -111.66220895 320.41552215 -113.125 322.015625 C-117.08004486 326.39298821 -120.80922514 330.91954509 -124.515625 335.5078125 C-126.60497552 338.02818288 -128.77255772 340.42996635 -131 342.828125 C-137.41496934 349.89129682 -143.09332813 357.529134 -148.75 365.203125 C-149.51376953 366.23759766 -149.51376953 366.23759766 -150.29296875 367.29296875 C-161.87292929 383.12803291 -173.00407024 401.8704914 -170.75 422.203125 C-167.97177785 439.35713218 -161.34998177 451.41861762 -147.75 462.203125 C-147.21858398 462.62803223 -146.68716797 463.05293945 -146.13964844 463.49072266 C-124.37396897 480.40840883 -95.50096633 489.18529306 -69.75 498.203125 C-69.0060498 498.46371704 -68.26209961 498.72430908 -67.49560547 498.99279785 C-48.44513593 505.64516227 -29.27599807 511.69879379 -9.80273438 516.99487305 C-9.09672592 517.18949127 -8.39071747 517.3841095 -7.66331482 517.58462524 C-5.76360464 518.10745982 -3.86149936 518.62157002 -1.95922852 519.13500977 C3.46675999 520.94092073 7.64415795 524.16308373 12.1328125 527.6015625 C13.52447581 528.65429674 14.93590456 529.68148648 16.3671875 530.6796875 C21.1285176 534.03956949 23.98055764 537.39512153 27.25 542.203125 C27.91 542.203125 28.57 542.203125 29.25 542.203125 C29.51425781 543.05777344 29.77851562 543.91242188 30.05078125 544.79296875 C32.0894942 550.59035117 35.03017856 555.96115567 37.82617188 561.421875 C38.86931808 563.45951588 39.9092246 565.49881615 40.94726562 567.5390625 C50.87794888 587.12316811 50.87794888 587.12316811 61.94189453 606.08007812 C63.58348543 608.74436974 65.18008191 611.43390165 66.77734375 614.125 C73.64299142 625.68847035 80.50761992 637.20197827 88.25 648.203125 C88.76884766 648.94755859 89.28769531 649.69199219 89.82226562 650.45898438 C95.788579 658.97147532 101.8516385 667.24782973 109.1875 674.640625 C109.94800659 675.41043701 109.94800659 675.41043701 110.72387695 676.19580078 C120.74938363 685.88477088 132.83269187 687.53974017 146.25 688.453125 C147.89742187 688.58847656 147.89742187 688.58847656 149.578125 688.7265625 C156.60508019 689.24276063 163.26126641 689.03466369 170.25 688.203125 C171.0953833 688.13085693 171.9407666 688.05858887 172.81176758 687.98413086 C190.39084661 686.27751672 207.07999271 664.79972026 217.66186523 652.37011719 C219.87889231 649.66391322 222.06957398 646.93886162 224.25 644.203125 C225.37155773 642.82897959 226.49505024 641.45640944 227.62109375 640.0859375 C233.82659078 632.49067799 239.94771005 624.8466765 245.86425781 617.0234375 C247.37291091 615.04166909 248.90125731 613.07592494 250.4296875 611.109375 C258.79151938 600.25372498 266.52408471 589.03615154 274.125 577.640625 C274.86937317 576.52729797 274.86937317 576.52729797 275.62878418 575.39147949 C277.04624076 573.26793979 278.45795894 571.14072552 279.8671875 569.01171875 C280.29564972 568.36881393 280.72411194 567.72590912 281.16555786 567.06352234 C282.8811044 564.45591361 284.25786405 562.17953286 285.25 559.203125 C286.24 559.203125 287.23 559.203125 288.25 559.203125 C289.65164494 557.82878212 289.65164494 557.82878212 290.9375 556.015625 C295.98945504 549.82853932 303.0987419 546.49971222 310.25 543.203125 C311.80400513 542.46980957 311.80400513 542.46980957 313.3894043 541.72167969 C317.22253121 540.0888802 321.05608827 539.42486156 325.171875 538.9140625 C326.74877634 538.698 328.32559556 538.48133753 329.90234375 538.26416016 C330.7310498 538.15324036 331.55975586 538.04232056 332.41357422 537.92803955 C355.27416304 534.83525694 377.75930909 530.29315901 400.25 525.203125 C401.01244019 525.03125671 401.77488037 524.85938843 402.5604248 524.68231201 C440.66912551 516.40327258 440.66912551 516.40327258 475.25 499.203125 C476.38115789 498.49552989 477.51268092 497.78851822 478.64453125 497.08203125 C491.02213894 488.94501408 497.08416472 475.97155473 500.34008789 461.80444336 C502.50790778 450.78457814 499.46015927 440.72715229 496.25 430.203125 C495.94707031 429.20023438 495.64414063 428.19734375 495.33203125 427.1640625 C491.29354521 415.43543255 484.53273614 404.83366161 478.25 394.203125 C477.83121582 393.49317383 477.41243164 392.78322266 476.98095703 392.05175781 C460.86210421 364.98097441 442.20544042 338.71987441 422.15625 314.4375 C413.92514777 304.40575752 407.42564566 294.25699899 405.25 281.203125 C404.92 280.543125 404.59 279.883125 404.25 279.203125 C401.54991681 265.56424325 405.02952595 251.67723791 407.25 238.203125 C409.86193817 222.15766384 411.8698483 206.13031893 413.4375 189.953125 C413.56451294 188.64634796 413.56451294 188.64634796 413.6940918 187.31317139 C418.28779044 143.49313241 418.28779044 143.49313241 412.25 100.203125 C411.899375 98.94757813 411.54875 97.69203125 411.1875 96.3984375 C408.52710816 88.39878704 404.31071474 82.97814949 398.25 77.203125 C397.25613281 76.23246094 397.25613281 76.23246094 396.2421875 75.2421875 C382.61886808 62.61166059 367.31659115 60.45665908 349.37109375 60.80859375 C324.93949277 61.95464763 300.67442139 69.74061397 277.36004639 76.58789062 C274.09044124 77.54122203 270.81232438 78.46362912 267.53515625 79.390625 C251.99763584 83.84922672 236.88110298 89.11159169 221.78295898 94.86254883 C221.06606903 95.13521576 220.34917908 95.40788269 219.61056519 95.68881226 C218.27702425 96.19748615 216.94458555 96.70906436 215.61355591 97.22427368 C209.32985573 99.62950324 203.34824707 101.40122396 196.625 101.890625 C195.53960938 101.97699219 194.45421875 102.06335937 193.3359375 102.15234375 C190.41652294 102.20038475 188.09280941 101.78480754 185.25 101.203125 C184.12980469 101.21472656 183.00960938 101.22632813 181.85546875 101.23828125 C168.49174444 101.10797408 156.40939313 93.3913182 145.06567383 87.07592773 C128.98762313 78.13982641 112.19385521 70.66960914 95.3125 63.390625 C94.42055939 63.00559814 93.52861877 62.62057129 92.60964966 62.22387695 C79.64687855 56.65615266 66.58787439 51.61653341 53.1875 47.203125 C52.06264694 46.83204117 52.06264694 46.83204117 50.91506958 46.45346069 C32.07504603 40.2846634 7.41086657 33.05895688 -10.75 44.203125 Z M456.25 136.203125 C456.18530518 137.32017822 456.12061035 138.43723145 456.05395508 139.58813477 C453.81066505 177.75963643 450.86312987 215.88389556 444.12963867 253.56054688 C441.17956877 266.78376069 441.17956877 266.78376069 444.4375 279.328125 C445.67155013 280.98123197 446.94949409 282.60177346 448.25 284.203125 C448.69037598 284.74646484 449.13075195 285.28980469 449.58447266 285.84960938 C451.69921657 288.45518796 453.82053031 291.05523871 455.95043945 293.6484375 C467.63909061 307.93583872 478.09644786 323.12502124 488.38867188 338.43457031 C490.22817182 341.17065759 492.07485834 343.90179588 493.921875 346.6328125 C519.009867 383.84819768 538.97251842 419.51546424 541.25 465.203125 C541.30285156 466.03585937 541.35570312 466.86859375 541.41015625 467.7265625 C541.75979441 477.36441446 538.82434996 486.35235367 535.25 495.203125 C537.28069895 497.23382395 541.47370376 496.36682814 544.26171875 496.37109375 C545.50317657 496.37751389 545.50317657 496.37751389 546.76971436 496.38406372 C549.4923629 496.39416261 552.21483602 496.39409381 554.9375 496.390625 C555.86337921 496.38968842 556.78925842 496.38875183 557.74319458 496.38778687 C598.00435619 497.33395278 598.00435619 497.33395278 635.25 484.203125 C636.03761719 483.72488281 636.82523438 483.24664063 637.63671875 482.75390625 C648.42696388 475.38800338 651.92349992 462.51210455 654.25 450.203125 C659.06593007 420.71154753 657.94812273 390.16833872 655.0625 360.578125 C654.94951569 359.38923676 654.83653137 358.20034851 654.72012329 356.97543335 C653.93467419 348.71398637 653.10833695 340.45730541 652.25 332.203125 C652.14860718 331.22559265 652.04721436 330.2480603 651.94274902 329.24090576 C649.59606835 306.84814539 645.90007567 285.0838232 640.634552 263.19224548 C639.62464377 258.9484675 638.75984922 254.70590954 638.01171875 250.40625 C635.88472274 238.34782614 632.67206252 229.88423626 624.95849609 220.34033203 C623.03718212 217.93690498 621.19901764 215.48108753 619.36328125 213.01171875 C611.9829609 203.11953086 604.34386334 193.51738021 596.25 184.203125 C595.18736093 182.91157275 594.12483648 181.61992616 593.0625 180.328125 C570.62704642 154.37042592 536.16855847 138.04057164 502.25 135.203125 C499.36318568 135.07942274 496.48292359 135.06235171 493.59375 135.0703125 C492.80657593 135.06935577 492.01940186 135.06839905 491.20837402 135.06741333 C489.55802327 135.06673833 487.90766975 135.06854467 486.25732422 135.07275391 C483.75612323 135.07811188 481.25510177 135.0727856 478.75390625 135.06640625 C477.13802044 135.06706715 475.52213475 135.06834856 473.90625 135.0703125 C473.17160522 135.06828827 472.43696045 135.06626404 471.68005371 135.06417847 C466.47293474 135.08726254 461.41806266 135.56126029 456.25 136.203125 Z M-535.75 315.203125 C-538.18474172 315.46238893 -540.61963782 315.72020715 -543.0546875 315.9765625 C-622.56404976 324.9846155 -687.14770047 363.16881446 -745.51171875 416.18359375 C-747.62977448 418.09464927 -749.77714567 419.96518083 -751.9375 421.828125 C-759.04324065 428.07041907 -764.9274665 434.82029949 -770.69921875 442.30078125 C-772.81986619 445.03887648 -774.99202169 447.72439433 -777.20703125 450.38671875 C-777.78630371 451.08547119 -778.36557617 451.78422363 -778.96240234 452.50415039 C-780.08038429 453.84822861 -781.20407573 455.18758635 -782.33447266 456.52124023 C-787.19341501 462.38722904 -790.5446066 468.40973352 -792.4375 475.828125 C-792.66824219 476.70726562 -792.89898438 477.58640625 -793.13671875 478.4921875 C-798.08498055 500.36539571 -790.94979567 519.49590739 -781.9375 539.140625 C-776.92905342 550.16527568 -772.13761884 561.26765042 -767.5 572.453125 C-767.19030273 573.20003601 -766.88060547 573.94694702 -766.56152344 574.7164917 C-764.95080585 578.60446287 -763.34371644 582.4939208 -761.73876953 586.38427734 C-758.66778524 593.82825537 -755.58287381 601.26646645 -752.49899292 608.70510864 C-751.79097848 610.41296982 -751.0830725 612.12087596 -750.37527466 613.8288269 C-714.91526623 699.39252329 -679.0434505 784.45985058 -613.75 894.203125 C-613.25725586 894.98768066 -612.76451172 895.77223633 -612.25683594 896.58056641 C-609.27808205 901.32127577 -606.28508319 906.05276124 -603.28466797 910.77978516 C-601.73727089 913.22322509 -600.19816868 915.67173791 -598.66015625 918.12109375 C-591.07137952 930.16886457 -583.22902908 942.03379959 -575.30377197 953.86148071 C-569.50819364 962.51259671 -563.78806112 971.19625464 -558.25 980.015625 C-552.76397182 988.74465353 -546.94229532 997.19334872 -540.984375 1005.60546875 C-538.16548053 1009.59122765 -535.43546438 1013.62665665 -532.75 1017.703125 C-516.652342 1042.05914764 -499.34319553 1065.6938405 -480.75 1088.203125 C-479.29126373 1089.99446362 -477.83293484 1091.78613405 -476.375 1093.578125 C-471.7079887 1099.2804525 -466.95728279 1104.90775043 -462.17822266 1110.51611328 C-460.76747347 1112.1824854 -459.37264354 1113.86106446 -457.98046875 1115.54296875 C-452.27973134 1122.38070352 -446.29256602 1128.84120284 -440 1135.140625 C-439.30310059 1135.83833008 -438.60620117 1136.53603516 -437.88818359 1137.25488281 C-433.924863 1141.17593049 -429.85405963 1144.91891269 -425.63427734 1148.56176758 C-422.83700032 1150.9984213 -420.1427115 1153.54038711 -417.4375 1156.078125 C-412.54309784 1160.63576946 -407.50674592 1164.94122662 -402.2890625 1169.12890625 C-399.91502329 1171.06831366 -397.64078433 1173.07670146 -395.375 1175.140625 C-390.36807502 1179.62746446 -385.07013523 1183.70625387 -379.69726562 1187.74023438 C-378.33412106 1188.76430186 -376.97366166 1189.79194887 -375.61523438 1190.82226562 C-334.48193047 1223.00543699 -334.48193047 1223.00543699 -286.86767578 1239.66796875 C-285.65435577 1239.74474854 -284.44103577 1239.82152832 -283.19094849 1239.90063477 C-281.85907736 1239.98075694 -280.52719847 1240.06075009 -279.1953125 1240.140625 C-277.81499337 1240.22617112 -276.43469376 1240.31203277 -275.05441284 1240.39819336 C-272.14758666 1240.57880962 -269.24061366 1240.7567541 -266.33349609 1240.93261719 C-262.6722853 1241.15413885 -259.01138486 1241.38034081 -255.35056973 1241.60829735 C-246.48486076 1242.16005814 -237.61812808 1242.69161241 -228.75 1243.203125 C-227.73148956 1243.26187805 -226.71297913 1243.3206311 -225.66360474 1243.38116455 C-183.70365338 1245.74348276 -142.2914912 1244.04877197 -100.53741455 1239.60211182 C-96.60914458 1239.18828653 -92.67964577 1238.78771024 -88.74951172 1238.39208984 C-0.9711445 1229.5452401 89.06825815 1217.35542028 285.25 1153.203125 C285.89795532 1152.95147583 286.54591064 1152.69982666 287.21350098 1152.44055176 C310.1097603 1143.53787972 332.73985101 1134.03733893 355.25 1124.203125 C356.10519226 1123.82955872 356.96038452 1123.45599243 357.8414917 1123.07110596 C400.4717225 1104.54789721 400.4717225 1104.54789721 442.25 1084.203125 C443.23057373 1083.70232422 443.23057373 1083.70232422 444.23095703 1083.19140625 C461.49572566 1074.35998669 477.89338926 1064.19887401 494.09765625 1053.56640625 C499.55045404 1049.9931594 505.05473269 1046.50330953 510.5625 1043.015625 C521.81253437 1035.87870674 532.97551921 1028.63180461 543.80859375 1020.87109375 C546.25 1019.203125 546.25 1019.203125 547.93505859 1018.43798828 C556.06922019 1014.36575797 560.23895825 1006.09902851 565 998.703125 C565.98433253 997.19626775 566.96919961 995.68975954 567.95458984 994.18359375 C616.91037186 918.98595407 639.58436278 830.50088821 662.25 535.203125 C662.28061523 534.06955566 662.31123047 532.93598633 662.34277344 531.76806641 C662.37032715 530.16777588 662.37032715 530.16777588 662.3984375 528.53515625 C662.41825684 527.60034424 662.43807617 526.66553223 662.45849609 525.70239258 C662.23850591 523.06534398 661.59181813 521.46054057 660.25 519.203125 C656.76268177 520.527187 653.57899786 522.0977352 650.3125 523.890625 C644.46603849 526.83921216 638.47997747 528.95204464 632.25 530.953125 C631.34902588 531.24662842 630.44805176 531.54013184 629.51977539 531.8425293 C594.16317542 542.87771664 542.47090505 543.02902321 506.64453125 534.08984375 C499.4486419 532.14005859 499.4486419 532.14005859 492.2890625 533.36328125 C489.49547622 535.18431528 486.89566194 537.17491444 484.25 539.203125 C462.20639784 551.82300486 435.10026038 556.93082544 410.56054688 562.66278076 C408.29725189 563.19207468 406.03530217 563.72683866 403.7734375 564.26220703 C388.92237518 567.75910195 374.07345529 570.86561098 358.97265625 573.08203125 C357.93054993 573.23536926 356.8884436 573.38870728 355.8147583 573.54669189 C350.69000331 574.29310222 345.56303931 575.0084489 340.42822266 575.68212891 C338.54978352 575.94288145 336.67136457 576.20377941 334.79296875 576.46484375 C333.94557632 576.56672501 333.0981839 576.66860626 332.22511292 576.77357483 C324.80438124 577.83048597 319.03521412 580.50138989 314.45263672 586.59033203 C313.59537885 587.86977809 312.75495859 589.1606295 311.9296875 590.4609375 C311.23757423 591.50568993 311.23757423 591.50568993 310.53147888 592.57154846 C309.55289141 594.05193875 308.58139489 595.53703789 307.61660767 597.02645874 C305.1013196 600.90774322 302.53234238 604.75338794 299.97265625 608.60546875 C299.47346176 609.36013931 298.97426727 610.11480988 298.45994568 610.89234924 C289.98901309 623.67751378 280.70459854 635.81086508 271.05078125 647.71875 C268.36431315 651.04020147 265.77031012 654.42586293 263.1875 657.828125 C255.38792381 668.05500061 246.92647492 677.71456622 238.25 687.203125 C237.27976319 688.27847919 236.30972209 689.35400999 235.33984375 690.4296875 C218.28095889 709.2629355 198.53165172 721.66735546 175.25 731.640625 C174.48526367 731.97078613 173.72052734 732.30094727 172.93261719 732.64111328 C159.340421 738.29024049 144.16775838 739.38093698 130.1328125 734.4609375 C102.76758468 723.13393844 79.04047653 703.31417903 62.25 679.203125 C61.34044765 677.92535117 60.43029852 676.64800191 59.51953125 675.37109375 C37.14879346 643.70410748 17.8431349 609.00098765 0.76220703 574.24243164 C-4.373099 563.19387659 -4.373099 563.19387659 -14.01611328 556.29882812 C-16.76489737 555.43782664 -19.52613142 554.68337721 -22.3125 553.953125 C-24.49408627 553.34588963 -26.67505189 552.73642111 -28.85546875 552.125 C-29.99290527 551.80982422 -31.1303418 551.49464844 -32.30224609 551.16992188 C-66.44811528 541.59495785 -100.43755076 529.84020251 -132.75 515.203125 C-133.76594238 514.7498584 -134.78188477 514.2965918 -135.82861328 513.82958984 C-151.60013203 506.75652755 -164.8940315 499.05699839 -177.578125 487.22265625 C-179.48204605 485.45228362 -181.42891151 483.78926732 -183.4375 482.140625 C-186.57210114 479.47365666 -189.21983389 476.52877083 -191.8671875 473.3828125 C-193.17790679 471.86542378 -194.54254312 470.39365925 -195.9453125 468.9609375 C-207.17665406 457.34887249 -213.31089204 442.63493169 -213.31274414 426.44384766 C-212.2946222 398.5708713 -200.17020519 369.4008098 -183.75 347.203125 C-186.60278255 345.30126997 -188.04777483 344.76278575 -191.30175781 344.09326172 C-192.23279831 343.89870895 -193.16383881 343.70415619 -194.12309265 343.50370789 C-195.13950333 343.29881241 -196.155914 343.09391693 -197.203125 342.8828125 C-198.269366 342.66313309 -199.33560699 342.44345367 -200.43415833 342.21711731 C-203.95442754 341.49557833 -207.47690405 340.78572568 -211 340.078125 C-212.81538773 339.71130112 -212.81538773 339.71130112 -214.66744995 339.33706665 C-273.65166307 327.44316662 -332.82652547 319.55418533 -392.75 314.203125 C-394.0656897 314.08390686 -394.0656897 314.08390686 -395.40795898 313.96228027 C-441.32848629 309.83939194 -489.98060745 309.56100265 -535.75 315.203125 Z " fill="#FFF6F7" transform="translate(1457.75,1056.796875)"/>
<path d="M0 0 C21.43059672 17.48537516 35.36600757 43.55168324 48.95166016 67.14990234 C49.44690186 67.99866943 49.94214355 68.84743652 50.45239258 69.72192383 C52.87877992 73.95116443 55.03081696 78.1375813 56.86572266 82.65771484 C60.82638147 92.47702013 60.82638147 92.47702013 69.01806641 98.57177734 C73.48182755 99.99716533 78.03715365 100.87240297 82.63964844 101.72412109 C87.8907001 102.79775301 92.96665982 104.42301648 98.07666016 106.02490234 C99.69048584 106.52231934 99.69048584 106.52231934 101.33691406 107.02978516 C132.01923809 116.60931398 161.88606334 126.54142812 185.20166016 149.39990234 C185.96430176 150.14361084 186.72694336 150.88731934 187.51269531 151.65356445 C197.45360893 161.71290134 202.85225651 174.35337412 203.67041016 188.54833984 C203.5436028 199.86589633 200.13911812 210.67685709 196.63916016 221.33740234 C196.15382813 222.86300781 196.15382813 222.86300781 195.65869141 224.41943359 C189.65729535 240.86003965 176.8196252 255.13781444 165.63916016 268.33740234 C165.11402832 268.96018066 164.58889648 269.58295898 164.04785156 270.22460938 C158.35792619 276.96124136 152.56776427 283.59785469 146.63525391 290.12255859 C144.27906271 292.73696253 142.00418117 295.41334147 139.74853516 298.11474609 C137.9874717 299.97038518 136.2612974 301.49182058 134.27978516 303.09130859 C133.38308105 303.86220825 133.38308105 303.86220825 132.46826172 304.64868164 C130.63916016 306.21240234 130.63916016 306.21240234 128.81787109 307.53979492 C126.71519279 309.39018852 125.71762654 310.73108716 124.63916016 313.33740234 C124.4526977 317.61576149 124.79353704 321.7242466 125.19238281 325.98144531 C125.73921086 331.86484115 125.79361002 337.72084142 125.80712891 343.62646484 C125.81234055 345.24933914 125.81234055 345.24933914 125.81765747 346.90499878 C125.82238181 349.13457867 125.82462481 351.36416511 125.82446289 353.59375 C125.82664347 356.93681704 125.84486167 360.27954972 125.86376953 363.62255859 C125.94872074 396.28990167 122.8586667 424.65943426 106.63916016 453.33740234 C106.15060547 454.21138672 105.66205078 455.08537109 105.15869141 455.98583984 C102.98190206 459.69642845 101.46391029 461.53340685 97.63916016 463.33740234 C96.14909834 464.42682139 94.67086459 465.53251415 93.20166016 466.64990234 C76.77575932 478.32350249 54.34554771 479.34880697 34.97119141 476.26318359 C6.93149318 470.67131638 -20.28263867 457.90305644 -46.06396484 445.87255859 C-46.92965088 445.47625244 -47.79533691 445.07994629 -48.68725586 444.67163086 C-51.36083984 443.33740234 -51.36083984 443.33740234 -54.2355957 441.5324707 C-59.96053702 438.07168288 -59.96053702 438.07168288 -66.46386719 437.71606445 C-69.91163694 438.8590607 -73.1282834 440.24657573 -76.42333984 441.77490234 C-78.97257285 442.86276015 -81.5364396 443.9145029 -84.09912109 444.97021484 C-84.76362274 445.24906021 -85.42812439 445.52790558 -86.11276245 445.81520081 C-93.95430515 449.07570185 -102.00410782 451.6381934 -110.11083984 454.14990234 C-110.85139618 454.38030212 -111.59195251 454.6107019 -112.35494995 454.8480835 C-142.24808908 464.10646753 -180.23837466 475.51019962 -210.36083984 460.33740234 C-216.76892502 456.38269835 -222.17670323 451.94935072 -226.92333984 446.09912109 C-228.2902826 444.33459009 -228.2902826 444.33459009 -229.83740234 442.99755859 C-246.9121858 424.39042277 -247.15926947 392.26639731 -246.26470947 368.81756592 C-245.97251436 362.85932647 -245.55112406 356.91125192 -245.11083984 350.96240234 C-245.04658813 350.06051178 -244.98233643 349.15862122 -244.9161377 348.22940063 C-243.9699582 335.05070016 -242.61776239 322.00606476 -240.54345703 308.95507812 C-240.37491211 307.8785498 -240.20636719 306.80202148 -240.03271484 305.69287109 C-239.80213379 304.31071411 -239.80213379 304.31071411 -239.56689453 302.90063477 C-239.06797632 296.69430497 -241.60502418 293.2705396 -245.42333984 288.64990234 C-245.92357666 288.02833252 -246.42381348 287.4067627 -246.93920898 286.76635742 C-249.09127095 284.09620007 -251.26980882 281.4482079 -253.44677734 278.79833984 C-259.28008527 271.63592379 -264.561386 264.11789007 -269.83056641 256.53662109 C-271.3005307 254.42407509 -272.77919077 252.31786339 -274.25927734 250.21240234 C-290.98387583 226.30767057 -302.76258257 203.67176639 -306.36083984 174.33740234 C-306.49103516 173.31646484 -306.62123047 172.29552734 -306.75537109 171.24365234 C-307.30961562 162.68508569 -303.69031768 155.04098437 -300.36083984 147.33740234 C-299.99345703 146.47115234 -299.62607422 145.60490234 -299.24755859 144.71240234 C-292.05270338 129.07913669 -270.18051618 115.46048381 -254.54882812 109.49731445 C-252.49388075 108.75273494 -250.43064528 108.03960784 -248.36083984 107.33740234 C-247.60383789 107.07781738 -246.84683594 106.81823242 -246.06689453 106.55078125 C-233.93964911 102.46860731 -221.5796958 99.292902 -209.14553833 96.30670166 C-207.4960505 95.91017626 -205.8473434 95.51038908 -204.19943237 95.10736084 C-195.88111057 93.07972432 -187.7175538 91.24372761 -179.18505859 90.42724609 C-165.60747794 89.45669032 -165.60747794 89.45669032 -155.02490234 81.81005859 C-151.86853242 77.17715377 -149.36106957 72.26461649 -146.88964844 67.24121094 C-144.47746104 62.65951868 -141.43714252 58.62886547 -138.29833984 54.52490234 C-137.71858398 53.75235107 -137.13882812 52.9797998 -136.54150391 52.18383789 C-135.38916773 50.64992381 -134.23279765 49.11903124 -133.07226562 47.59130859 C-131.37616427 45.35758425 -129.69378234 43.1140546 -128.01318359 40.86865234 C-121.51581057 32.23116075 -114.75138835 23.89960044 -107.61669922 15.78125 C-106.52746343 14.52896765 -105.46502818 13.25347023 -104.40771484 11.97412109 C-76.02884172 -22.17335475 -34.07383793 -26.78142727 0 0 Z " fill="#FFF6F7" transform="translate(1318.36083984375,1670.66259765625)"/>
<path d="M0 0 C22.6779544 -0.32536712 45.23771865 -0.24926136 67.86639404 1.42181396 C69.16516479 1.51649963 69.16516479 1.51649963 70.49017334 1.61309814 C72.92911429 1.79618879 75.36654915 1.99209673 77.80389404 2.19525146 C78.50687622 2.25057037 79.2098584 2.30588928 79.93414307 2.36288452 C92.09721215 3.45455026 92.09721215 3.45455026 96.36639404 7.29681396 C98.177006 10.61626922 98.48766775 12.31917171 97.86639404 16.04681396 C96.0664563 18.74672058 94.78262104 20.58870046 91.86639404 22.04681396 C84.72934297 23.02246427 77.52399149 23.21898796 70.33123779 23.37103271 C68.18952328 23.42605093 66.04784171 23.4823615 63.90618896 23.53973389 C62.75927582 23.57037933 61.61236267 23.60102478 60.43069458 23.63259888 C-7.88084205 25.54842355 -76.23612377 30.00426121 -144.12949371 37.81690979 C-146.1393527 38.04747321 -148.1494611 38.27572576 -150.15966797 38.50323486 C-225.09675069 46.99037859 -299.25621308 60.0968513 -420.89233398 84.17181396 C-423.72849248 84.75746364 -426.56512533 85.34072475 -429.40222168 85.92181396 C-462.92232634 92.78916059 -495.92038037 100.30108198 -528.41827393 111.15472412 C-534.66983917 113.23639615 -540.94906008 115.22784008 -547.23126221 117.21478271 C-572.55081925 125.23420501 -597.76529101 133.51849562 -622.85821533 142.22064209 C-627.51084984 143.83337449 -632.16798471 145.43275743 -636.82601929 147.02981567 C-666.74788752 157.29251149 -696.51009848 167.95171026 -726.13360596 179.04681396 C-727.01705688 179.37768005 -727.90050781 179.70854614 -728.81072998 180.04943848 C-768.04035328 194.76354557 -806.58082822 211.02349633 -844.862854 228.03839111 C-847.0205951 228.99662674 -849.17938731 229.95244148 -851.33868408 230.90716553 C-867.39220274 238.00706179 -883.30576459 245.3502657 -899.08215332 253.04681396 C-901.36398035 254.15911214 -903.646923 255.26909995 -905.92999268 256.37884521 C-957.28790332 281.09945946 -957.28790332 281.09945946 -1007.68731689 307.6864624 C-1012.30028227 310.25167628 -1016.92582333 312.79057819 -1021.57110596 315.29681396 C-1022.43066895 315.77586182 -1023.29023193 316.25490967 -1024.17584229 316.74847412 C-1029.00724068 319.33553871 -1032.50651632 320.76713849 -1038.13360596 320.04681396 C-1041.00860596 318.48431396 -1041.00860596 318.48431396 -1043.13360596 316.04681396 C-1044.20872734 312.3510842 -1044.64380244 310.1725144 -1043.03594971 306.62493896 C-1040.69425015 303.4513831 -1037.92043308 301.41943475 -1034.69610596 299.23431396 C-1033.75795044 298.58257202 -1033.75795044 298.58257202 -1032.80084229 297.91766357 C-1030.91928474 296.6159646 -1029.02831328 295.32927555 -1027.13360596 294.04681396 C-1026.14618408 293.37392334 -1025.15876221 292.70103271 -1024.14141846 292.00775146 C-1021.1540269 289.99684801 -1018.14610689 288.01989267 -1015.13360596 286.04681396 C-1013.87050214 285.20709503 -1012.6074862 284.36724389 -1011.34454346 283.52728271 C-993.56732853 271.78025256 -974.8357816 261.73197841 -956.08721924 251.64056396 C-951.42694243 249.12590972 -946.78041884 246.58623441 -942.13360596 244.04681396 C-939.39729605 242.55396889 -936.66072295 241.0616071 -933.9241333 239.5692749 C-932.04124923 238.54200762 -930.15877137 237.51399547 -928.27667236 236.48529053 C-892.76043914 217.08240635 -856.66418139 199.18595848 -819.76194763 182.59069824 C-815.8498039 180.8289657 -811.95098 179.04179921 -808.06329346 177.22650146 C-780.5970297 164.40906966 -752.47368571 152.94686642 -724.26165771 141.88226318 C-722.00556134 140.99654509 -719.75069907 140.10773111 -717.49591064 139.21868896 C-675.89379458 122.8346406 -633.87726029 107.50895985 -591.48321533 93.29852295 C-583.19739776 90.51296291 -574.96110295 87.65644268 -566.80548096 84.50775146 C-543.1863996 75.41131407 -519.26714513 68.56613473 -494.7527771 62.27728271 C-489.36238533 60.89356585 -483.99307328 59.46991401 -478.64532471 57.92962646 C-461.05055763 52.91147889 -443.06301003 50.11437409 -425.04220581 47.0887146 C-410.23482928 44.60211332 -395.46680838 41.93498187 -380.70471191 39.19311523 C-303.72624364 24.9138891 -226.4171217 13.3867025 -148.38360596 6.79681396 C-147.63711792 6.7336713 -146.89062988 6.67052864 -146.121521 6.60547256 C-129.88753244 5.2352541 -113.64899358 3.9672328 -97.39141846 2.91009521 C-95.55223846 2.78988007 -95.55223846 2.78988007 -93.67590332 2.66723633 C-82.79650569 1.98089958 -71.90990384 1.53692462 -61.01251221 1.26556396 C-60.00131065 1.24024597 -60.00131065 1.24024597 -58.96968079 1.2144165 C-57.49025625 1.17760693 -56.01081949 1.14128573 -54.53137207 1.10540771 C-51.94284244 1.04215231 -49.35438968 0.97615572 -46.76593018 0.91009521 C-31.17852706 0.51767679 -15.59053201 0.23291206 0 0 Z " fill="#FFF6F7" transform="translate(1676.1336059570313,568.9531860351563)"/>
<path d="M0 0 C20.43457862 8.64689 32.96876749 37.89876921 40.73535156 57.05053711 C47.77086164 75.27050343 52.50953247 94.54304068 55.64160156 113.80566406 C55.96541695 115.78826127 56.32069351 117.76565735 56.6796875 119.7421875 C59.6519555 138.02367151 62.2731604 166.59469123 52.34765625 183.17578125 C49.4710134 187.06967171 47.45216824 188.69860659 42.6875 189.6875 C37.43924591 188.70901195 34.20440863 186.24171204 31 182 C27.26423936 174.45670795 25.22334574 166.23773573 23.125 158.125 C22.95325256 157.46470795 22.78150513 156.80441589 22.60455322 156.12411499 C19.37516652 143.59884883 17.17097846 130.98847892 15.14672852 118.22192383 C9.76058342 84.29596258 0.75067362 52.38987389 -11.97875977 20.55200195 C-13.94647522 15.52781135 -14.94710612 11.3465668 -14 6 C-10.39215868 0.22745389 -6.66929271 -1.02333063 0 0 Z " fill="#FFF6F7" transform="translate(1999,591)"/>
<path d="M0 0 C9.10077498 6.71723868 11.16887912 18.52681663 13 29 C13.59517781 33.86569442 13.98910959 38.73883555 14.375 43.625 C17.36142313 77.88718164 25.70524868 110.53151034 37.1328125 142.86328125 C38.09024098 145.57492542 39.04614332 148.28709727 40 151 C40.2422229 151.68784576 40.4844458 152.37569153 40.73400879 153.0843811 C41.44263918 155.10827965 42.14073484 157.13551774 42.8359375 159.1640625 C43.24118652 160.33533691 43.64643555 161.50661133 44.06396484 162.71337891 C45.87556388 169.07429341 45.9921817 174.56088666 43.5 180.6875 C43.005 181.450625 42.51 182.21375 42 183 C34.33704602 182.85809344 29.57052642 180.21646754 24 175 C19.86804142 170.32857669 16.21496244 165.29082289 12.59179688 160.22119141 C11.11029377 158.15390379 9.59867215 156.11285137 8.078125 154.07421875 C0.53356171 143.7640183 -4.93613332 132.70207652 -10 121 C-10.30808594 120.29375488 -10.61617187 119.58750977 -10.93359375 118.85986328 C-15.8725937 107.31751144 -18.62554865 95.29611144 -21 83 C-21.16661133 82.16887695 -21.33322266 81.33775391 -21.50488281 80.48144531 C-23.83961246 68.39208953 -24.33921684 56.26233281 -24.47177124 43.98022461 C-24.49033675 42.30792406 -24.51619177 40.63568576 -24.54995728 38.96362305 C-24.77711976 26.16267094 -23.46776415 14.32008756 -15 4 C-9.94135616 -0.56511761 -6.71801339 -1.62158944 0 0 Z " fill="#FFF6F7" transform="translate(586,934)"/>
<path d="M0 0 C5.69615352 3.92401687 9.02930513 8.22243556 10.8125 14.9375 C11.03431711 18.13868849 10.95149832 21.31741769 10.8671875 24.5234375 C10.83815639 26.43064738 10.81028665 28.33787521 10.78344727 30.24511719 C10.76678009 31.23620483 10.75011292 32.22729248 10.73294067 33.24841309 C10.49360364 49.38702652 10.48432309 64.98819906 14.1015625 80.796875 C14.96575348 84.61450988 15.74840998 88.44626347 16.53125 92.28125 C19.69618507 107.72447629 19.69618507 107.72447629 23.359375 123.0546875 C25.02048347 129.59120716 26.29225102 136.17900259 27.5 142.8125 C27.72494141 143.97652344 27.94988281 145.14054687 28.18164062 146.33984375 C32.11431119 167.92769493 32.11431119 167.92769493 27.8125 174.9375 C24.25322414 175.25731899 22.36325624 175.29488728 19.3203125 173.3203125 C13.57542161 167.87679294 8.48335619 162.32665044 3.8125 155.9375 C3.32346191 155.28523438 2.83442383 154.63296875 2.33056641 153.9609375 C-6.38841168 142.25521775 -12.46563092 130.72612818 -17.1875 116.9375 C-17.46142578 116.17002441 -17.73535156 115.40254883 -18.01757812 114.61181641 C-29.18608086 83.19872047 -37.82231571 40.03612866 -24.1875 7.9375 C-19.1971863 -1.03813367 -9.20244767 -3.06748256 0 0 Z " fill="#FFF6F7" transform="translate(525.1875,976.0625)"/>
</svg>
